<?xml version="1.0" standalone="no"?>
<!DOCTYPE svg PUBLIC "-//W3C//DTD SVG 20010904//EN"
 "http://www.w3.org/TR/2001/REC-SVG-20010904/DTD/svg10.dtd">
<svg version="1.0" xmlns="http://www.w3.org/2000/svg"
 width="16.000000pt" height="16.000000pt" viewBox="0 0 16.000000 16.000000"
 preserveAspectRatio="xMidYMid meet">

<g transform="translate(0.000000,16.000000) scale(0.100000,-0.100000)"
fill="#000000" stroke="none">
<path d="M65 90 c-24 -4 -26 -7 -13 -12 11 -5 15 -13 12 -23 -5 -11 1 -15 20
-15 18 0 24 4 20 15 -4 8 -11 15 -18 16 -6 0 -2 4 8 8 28 11 7 19 -29 11z"/>
<path d="M126 55 c8 -19 10 -19 18 0 3 9 0 15 -9 15 -9 0 -12 -6 -9 -15z"/>
</g>
</svg>
