<?xml version="1.0" standalone="no"?>
<!DOCTYPE svg PUBLIC "-//W3C//DTD SVG 20010904//EN"
 "http://www.w3.org/TR/2001/REC-SVG-20010904/DTD/svg10.dtd">
<svg version="1.0" xmlns="http://www.w3.org/2000/svg"
 width="500.000000pt" height="500.000000pt" viewBox="0 0 500.000000 500.000000"
 preserveAspectRatio="xMidYMid meet">

<g transform="translate(0.000000,500.000000) scale(0.100000,-0.100000)"
fill="#000000" stroke="none">
<path d="M2900 4197 c-34 -9 -46 -17 -48 -34 -3 -18 2 -22 30 -25 l33 -3 3
-243 2 -242 -35 -17 c-19 -9 -35 -23 -35 -30 0 -10 29 -13 130 -13 125 0 130
1 130 21 0 14 -10 24 -30 32 l-30 11 0 262 c0 240 -1 262 -18 277 -21 19 -67
21 -132 4z"/>
<path d="M1026 4123 c-8 -19 9 -33 42 -33 l22 0 0 -223 0 -223 -35 -17 c-19
-9 -35 -24 -35 -32 0 -13 28 -15 228 -13 l227 3 3 83 3 82 -40 0 c-40 0 -41
-1 -54 -47 -8 -27 -19 -48 -26 -47 -6 1 -38 2 -71 3 l-60 1 0 80 0 80 90 0 90
0 0 40 c0 25 -5 40 -12 41 -27 2 -94 -2 -130 -7 l-38 -6 0 91 0 91 58 0 c70 0
78 -5 87 -53 7 -36 9 -37 50 -37 l42 0 7 53 c3 28 6 64 6 80 l0 27 -224 0
c-200 0 -225 -2 -230 -17z"/>
<path d="M1512 4118 c2 -17 12 -24 33 -28 29 -5 32 -10 120 -263 l90 -257 45
0 c89 0 80 -12 172 257 77 230 85 247 116 265 17 11 32 26 32 34 0 11 -23 14
-115 14 l-115 0 0 -25 c0 -22 4 -25 35 -25 19 0 35 -4 35 -9 0 -16 -132 -395
-141 -405 -4 -5 -6 15 -3 45 5 46 -2 75 -45 203 -28 82 -50 150 -48 152 1 1
17 9 35 18 17 9 32 23 32 31 0 13 -23 15 -141 15 -140 0 -140 0 -137 -22z"/>
<path d="M2578 4132 c-210 -2 -218 -3 -218 -22 0 -16 7 -20 30 -20 l30 0 0
-229 0 -229 -30 -12 c-33 -14 -39 -34 -14 -44 20 -8 258 -8 278 0 9 3 16 14
16 24 0 14 -11 20 -50 25 l-50 7 0 84 0 84 95 0 95 0 0 42 0 41 -95 -6 -95 -6
0 99 0 99 58 -6 c77 -6 82 -9 82 -37 0 -46 10 -56 55 -56 l42 0 7 53 c9 78 7
104 -6 108 -7 2 -111 3 -230 1z"/>
<path d="M3270 3987 c-110 -35 -170 -198 -114 -308 20 -39 78 -87 121 -98 63
-18 100 -13 173 24 63 32 69 37 60 55 -13 24 -9 24 -76 4 -51 -14 -57 -14 -91
3 -41 20 -68 54 -77 96 l-6 27 113 0 c106 0 115 1 136 24 17 18 20 30 15 52
-25 107 -135 159 -254 121z m116 -98 c8 -16 14 -30 14 -34 0 -3 -29 -5 -65 -5
-74 0 -81 10 -39 59 22 27 28 29 50 19 14 -7 32 -24 40 -39z"/>
<path d="M3550 3956 c0 -17 7 -26 24 -30 14 -3 45 -34 76 -76 l51 -69 -61 -73
c-34 -40 -72 -79 -86 -86 -13 -7 -24 -19 -24 -27 0 -12 21 -15 115 -15 106 0
115 1 115 19 0 10 -9 25 -20 32 -18 13 -19 17 -6 52 l13 39 36 -49 c28 -38 33
-50 21 -56 -8 -4 -14 -15 -14 -22 0 -12 21 -15 115 -15 109 0 115 1 115 21 0
14 -11 25 -35 35 -31 13 -116 110 -132 152 -6 15 82 120 119 141 15 9 28 24
28 34 0 15 -12 17 -105 17 -91 0 -105 -2 -105 -16 0 -9 7 -22 16 -28 14 -11
14 -16 -2 -52 -14 -31 -18 -35 -22 -19 -2 10 -11 30 -20 43 -11 16 -12 26 -4
34 6 6 8 17 5 24 -4 11 -30 14 -109 14 -103 0 -104 0 -104 -24z"/>
<path d="M2537 2855 c-385 -233 -701 -425 -703 -428 -3 -2 92 -90 211 -196
l215 -192 -63 -82 c-54 -70 -619 -813 -651 -857 -7 -10 -1 -9 19 4 34 22 1306
905 1317 915 6 5 -334 300 -409 356 -12 9 64 100 371 448 355 404 403 459 394
456 -2 0 -317 -191 -701 -424z"/>
<path d="M2125 2973 c-151 -7 -350 -26 -453 -44 -96 -16 -167 -19 -455 -20
-188 0 -337 -2 -332 -4 6 -2 118 -13 250 -25 132 -12 245 -22 250 -24 6 -2
-24 -19 -67 -38 -42 -20 -145 -76 -230 -126 -206 -121 -271 -152 -329 -159
-40 -5 -53 -12 -75 -40 -14 -18 -43 -45 -64 -58 -69 -44 -103 -125 -127 -307
l-16 -118 -231 -1 -231 -1 185 -28 c102 -16 204 -31 228 -35 26 -4 42 -11 42
-20 0 -32 51 -172 70 -193 12 -13 64 -35 128 -55 l107 -34 20 -60 c12 -32 31
-73 44 -91 l22 -32 -292 0 c-161 0 -290 -2 -288 -5 13 -13 1360 -109 1369 -98
28 34 70 92 70 97 0 3 -104 6 -231 6 l-230 0 20 29 c11 15 25 40 31 55 11 30
1 30 295 16 188 -8 190 -8 207 13 10 12 18 25 18 28 0 3 -107 9 -237 13 -131
4 -263 9 -294 12 l-56 6 -12 81 c-26 171 -93 332 -163 392 -112 95 -267 48
-311 -96 -17 -55 -21 -102 -17 -199 l3 -55 9 73 c13 105 43 179 93 230 38 38
47 42 90 42 44 0 105 -24 105 -42 0 -4 -28 -8 -62 -8 -45 0 -71 -6 -91 -19
-61 -40 -104 -139 -114 -259 -5 -60 -9 -72 -22 -67 -9 2 -47 14 -86 25 -38 12
-78 31 -88 42 -9 11 -26 50 -37 87 l-21 66 21 157 c27 211 62 299 123 313 12
2 253 9 536 15 283 5 516 12 518 14 7 7 -620 25 -926 26 -61 0 -72 2 -62 14 6
7 29 16 50 19 55 7 126 41 293 140 166 99 296 166 390 201 156 59 418 91 823
102 214 6 244 9 273 26 17 11 32 22 32 24 0 4 -361 2 -465 -3z m-1111 -1033
c51 -45 71 -106 71 -220 0 -84 -3 -102 -29 -153 -33 -69 -75 -100 -121 -91
-43 9 -51 21 -12 16 47 -5 90 34 117 106 29 75 25 215 -7 277 -26 50 -60 82
-93 88 -21 4 -20 4 7 6 23 1 42 -8 67 -29z m-118 -126 c-4 -12 -10 -12 -26 -4
-26 14 -25 31 3 66 l22 29 3 -39 c2 -21 1 -45 -2 -52z m114 21 c0 -16 -34 -38
-44 -28 -3 3 -6 27 -6 52 l1 46 24 -28 c14 -15 25 -34 25 -42z m-62 -67 c17
-17 15 -73 -4 -89 -14 -11 -18 -10 -30 6 -24 32 -13 95 16 95 3 0 11 -5 18
-12z m-92 -46 c21 -14 24 -44 7 -75 l-17 -32 -7 25 c-10 34 -11 90 -1 90 4 0
12 -4 18 -8z m166 -73 l-9 -34 -16 31 c-18 35 -13 71 12 76 20 4 26 -27 13
-73z m-72 -55 c13 -34 13 -41 -5 -48 -17 -6 -45 2 -45 14 0 20 20 60 30 60 6
0 15 -12 20 -26z"/>
<path d="M3015 2909 c-10 -10 -16 -21 -14 -23 2 -1 45 -13 94 -25 50 -12 114
-33 143 -46 28 -13 166 -101 306 -195 246 -166 255 -171 322 -181 124 -17 266
-50 379 -86 122 -39 309 -125 369 -171 39 -29 39 -30 40 -100 1 -62 5 -76 33
-116 30 -42 33 -55 39 -144 4 -54 13 -106 20 -117 17 -24 18 -61 3 -71 -6 -4
-27 -10 -45 -14 -33 -8 -36 -6 -54 30 -35 69 -33 69 -303 64 -133 -3 -258 -7
-277 -10 -26 -4 -48 -20 -85 -59 l-50 -53 -319 -11 c-176 -6 -321 -9 -323 -8
-2 2 -8 42 -13 88 -21 167 -77 315 -155 406 -61 72 -189 120 -253 96 -22 -8
-19 -12 52 -72 42 -35 76 -67 76 -72 0 -4 -9 -14 -20 -22 -19 -13 -18 -15 18
-38 78 -51 125 -198 102 -326 -14 -84 -43 -145 -86 -183 -44 -38 -117 -43
-155 -9 -23 19 -23 20 -2 10 12 -6 41 -11 64 -11 37 0 48 6 85 45 51 53 74
119 74 215 0 96 -23 162 -74 215 -23 25 -51 45 -62 45 -11 0 -67 -33 -124 -73
-100 -69 -105 -74 -113 -117 -7 -41 -3 -115 9 -180 4 -20 3 -22 -5 -9 -5 8
-18 57 -28 107 l-18 91 -68 -46 c-72 -50 -73 -63 -5 -63 34 0 38 -3 47 -37 6
-21 11 -43 11 -49 0 -7 -44 -9 -137 -7 l-138 4 -175 -123 -175 -123 65 -6
c159 -15 743 -21 960 -10 449 23 1879 125 1905 135 6 3 -81 5 -192 5 l-202 1
25 49 25 48 64 6 c37 2 78 13 97 24 28 16 33 26 36 61 2 23 -4 56 -12 74 -9
22 -17 87 -21 193 -4 90 -12 173 -19 190 -60 142 -419 307 -821 376 l-120 21
-263 175 c-234 156 -274 180 -360 209 -135 44 -156 47 -177 23z m-135 -1063
c0 -56 -17 -71 -53 -47 -26 16 -26 18 -10 42 18 27 43 49 55 49 4 0 8 -20 8
-44z m116 8 l28 -36 -24 -18 c-18 -13 -28 -16 -37 -8 -15 12 -18 98 -4 98 6 0
22 -16 37 -36z m-56 -113 c24 -47 -2 -116 -36 -95 -29 17 -38 61 -20 89 20 30
42 32 56 6z m-122 -47 c28 -8 30 -58 3 -93 l-18 -24 -11 46 c-20 77 -18 82 26
71z m222 -26 c-1 -18 -7 -46 -14 -63 l-13 -30 -17 33 c-23 45 -8 91 32 92 7 0
12 -13 12 -32z m-102 -113 c20 -44 15 -55 -22 -55 -43 0 -49 8 -33 49 14 38
40 40 55 6z m1125 -55 l26 -40 -390 0 c-214 0 -389 2 -389 5 0 2 5 16 12 30
11 24 16 25 92 26 45 1 167 5 271 8 105 4 226 8 271 9 l80 2 27 -40z m-1315
-5 c7 -14 12 -28 12 -30 0 -3 -71 -5 -157 -5 l-158 0 31 19 c18 11 35 24 38
30 5 7 49 11 115 11 106 0 108 0 119 -25z"/>
<path d="M1712 2859 c-102 -13 -211 -47 -317 -98 -80 -40 -126 -72 -232 -163
-72 -62 -130 -114 -129 -115 1 -1 161 -8 354 -14 l352 -12 245 148 c135 81
245 151 245 155 0 12 -44 47 -85 68 -22 11 -67 25 -100 31 -66 12 -239 13
-333 0z"/>
<path d="M2800 2664 c-85 -97 -156 -179 -157 -182 -2 -4 216 -8 485 -9 268 -1
509 -5 535 -8 30 -4 46 -2 43 4 -9 14 -413 284 -463 310 -48 24 -139 46 -228
55 l-61 7 -154 -177z"/>
<path d="M2615 2395 c6 -2 105 -16 220 -30 369 -46 643 -106 748 -163 62 -33
144 -122 219 -236 32 -48 58 -85 58 -80 0 4 -20 49 -44 99 -53 106 -124 198
-188 241 -93 63 -314 118 -598 149 -136 14 -434 29 -415 20z"/>
<path d="M3043 2243 c-22 -56 305 -218 462 -230 62 -4 73 -3 93 16 45 44 16
94 -81 139 -155 73 -457 121 -474 75z"/>
<path d="M3826 2187 c-30 -22 -22 -58 35 -168 49 -94 59 -107 107 -135 69 -42
159 -58 317 -58 170 0 253 23 310 85 l38 42 -6 71 c-9 106 -18 136 -41 151
-32 20 -734 31 -760 12z m677 -44 c46 -4 67 -10 67 -19 0 -26 -709 -12 -718
14 -3 9 59 12 290 12 161 0 323 -3 361 -7z m-45 -80 c105 -5 122 -8 122 -23 0
-15 -26 -16 -337 -12 -327 4 -352 7 -353 35 0 9 402 9 568 0z m120 -100 c-3
-17 -27 -18 -309 -21 -295 -2 -306 -2 -324 18 l-18 20 327 0 c306 0 327 -1
324 -17z m-179 -74 l66 -1 -45 -10 c-57 -12 -307 -4 -340 11 -19 9 6 10 114 6
77 -3 169 -5 205 -6z"/>
<path d="M1675 1731 c166 -11 244 -13 254 -6 22 16 -75 23 -299 22 l-195 0
240 -16z"/>
</g>
</svg>
