<svg width="483" height="583" viewBox="0 0 483 583" fill="none" xmlns="http://www.w3.org/2000/svg">
<g filter="url(#filter0_f_3074-13840)">
<path fill-rule="evenodd" clip-rule="evenodd" d="M251.355 186.11C310.148 188.101 356.846 223.779 387.008 263.132C412.117 296.207 402.319 334.795 393.438 372.616C383.793 413.807 380.73 460.663 335.411 483.326C285.192 508.438 217.365 509.51 165.462 486.541C116.621 464.951 103.606 418.554 91.6641 375.832C79.8748 333.723 69.6166 289.163 99.9318 253.179C133.309 213.366 190.265 183.966 251.355 186.11Z" fill="#AEE8FF"/>
</g>
<path fill-rule="evenodd" clip-rule="evenodd" d="M245.312 152.841C306.492 154.909 355.086 191.978 386.473 232.864C412.602 267.228 402.405 307.319 393.164 346.615C383.127 389.411 379.94 438.093 332.781 461.639C280.523 487.73 209.942 488.843 155.932 464.98C105.107 442.548 91.5649 394.343 79.1376 349.956C66.8697 306.206 56.195 259.91 87.741 222.523C122.474 181.159 181.742 150.614 245.312 152.841Z" fill="url(#paint0_radial_3074-13840)"/>
<path d="M273.035 146.001C273.035 146.001 294.384 204.865 299.005 210.274C303.625 215.524 313.981 213.933 309.202 201.365C303.466 185.774 285.94 129.773 285.94 129.773L273.035 146.001Z" fill="#F2B39A"/>
<path d="M245.102 414.165C272.665 414.165 291.515 400.228 291.515 389.569C291.515 378.91 286.567 360.137 259.004 360.137C231.441 360.137 181.977 376.116 181.977 386.776C181.818 397.435 217.539 414.165 245.102 414.165Z" fill="#5B99BB"/>
<path d="M265.227 397.047L248.498 387.66C243.081 384.478 244.833 380.978 244.515 377.16C244.355 375.41 244.993 370.796 247.223 370.319L253.118 372.069C259.969 370.001 258.217 368.569 261.403 371.274L279.885 390.683C285.461 395.137 273.034 401.66 265.227 397.047Z" fill="#283C70"/>
<path d="M260.131 371.432C260.45 377 247.067 377.636 246.748 372.227L245.633 354.409L259.016 353.613L260.131 371.432Z" fill="#F2B39A"/>
<path d="M263.951 364.751C259.33 370.637 247.062 369.205 244.354 364.91C239.734 308.909 235.113 245.591 229.855 179.727L274.785 187.681C273.032 256.568 269.846 317.182 263.951 364.751Z" fill="#52A6FF"/>
<path d="M212.014 397.524L228.265 387.501C233.523 384.16 231.611 380.66 231.77 376.842C231.77 375.092 230.974 370.637 228.743 370.001L222.848 371.91C215.838 370.16 217.591 368.569 214.563 371.433L197.038 391.637C191.939 396.41 204.526 402.455 212.014 397.524Z" fill="#283C70"/>
<path d="M216.158 371.752C215.998 377.32 229.381 377.479 229.541 371.911L229.859 354.093L216.476 353.934L216.158 371.752Z" fill="#F2B39A"/>
<path d="M213.129 362.84C217.908 368.726 230.176 367.135 232.725 362.999C235.115 307.635 237.346 244.953 239.736 180.043L195.125 187.998C199.427 255.771 205.162 315.749 213.129 362.84Z" fill="#52A6FF"/>
<path d="M259.493 126.592L269.849 165.729C271.601 168.751 297.73 158.569 295.818 153.797C295.5 153.001 284.506 101.774 272.557 93.9781C260.608 86.5008 253.916 108.615 259.493 126.592Z" fill="#FD7068"/>
<path d="M268.094 161.751C268.094 161.751 269.687 164.774 269.846 164.933C271.758 169.705 296.613 158.41 296.453 153.955L294.701 149.023C291.355 155.705 275.901 160.955 268.094 161.751Z" fill="#283C70"/>
<path d="M278.448 197.546L271.597 93.4994L245.468 81.7266L235.908 82.3629L226.349 81.7266L200.379 93.4994L192.254 198.023C220.136 212.659 248.814 213.296 278.448 197.546Z" fill="#FD7068"/>
<path d="M235.912 101.612C244.037 101.612 250.569 96.5214 250.569 90.1577C250.569 83.7941 244.037 78.7031 235.912 78.7031C227.786 78.7031 221.254 83.7941 221.254 90.1577C221.254 96.5214 227.786 101.612 235.912 101.612Z" fill="#283C70"/>
<path d="M226.992 89.6778L227.151 68.2003C227.151 64.3821 230.338 61.3594 234.162 61.3594H235.277C239.101 61.3594 242.128 64.5412 241.969 68.3594L244.677 89.8369C245.633 97.1551 226.992 98.5869 226.992 89.6778Z" fill="#F2B39A"/>
<path d="M227.145 79.6609C227.145 79.6609 236.067 81.4109 243.396 73.9336C243.396 73.9336 235.429 86.0246 227.145 85.7064V79.6609Z" fill="#F2B39A"/>
<path d="M212.172 126.588L201.816 165.724C200.064 168.747 170.27 154.429 172.341 149.815C172.66 149.02 187.158 101.769 199.108 94.133C211.057 86.4966 217.908 108.61 212.172 126.588Z" fill="#FD7068"/>
<path d="M168.994 149.341L168.197 149.659C164.852 150.773 163.099 154.591 164.214 157.773L167.241 166.205C168.357 169.546 172.18 171.296 175.367 170.182L176.164 170.023C179.509 168.909 181.262 165.091 180.147 161.909L177.12 153.477C176.004 149.977 172.34 148.068 168.994 149.341Z" fill="#F2B39A"/>
<path d="M300.914 200.883L300.276 201.361C297.249 203.429 296.612 207.724 298.842 210.747L304.259 218.224C306.331 221.247 310.632 221.884 313.5 219.656L314.138 219.179C317.165 217.111 317.802 212.815 315.571 209.793L310.154 202.315C308.083 199.293 303.941 198.656 300.914 200.883Z" fill="#F2B39A"/>
<path d="M234.953 82.3583C228.58 82.3583 219.18 75.1992 219.18 66.4491V50.2217C219.18 41.4716 226.19 34.3125 234.953 34.3125C243.556 34.3125 250.726 41.4716 250.726 50.2217V66.6082C250.566 75.1992 241.804 82.3583 234.953 82.3583Z" fill="#F2B39A"/>
<path d="M230.972 71.6992H238.778C239.734 71.6992 240.212 72.8129 239.734 73.4492C238.619 75.1992 236.548 77.4265 234.477 77.1084C232.405 76.7902 230.972 74.8811 230.016 73.4492C229.538 72.6538 230.016 71.6992 230.972 71.6992Z" fill="white"/>
<path d="M231.929 42.9069C231.929 42.9069 234.797 48.7933 239.895 50.7024C245.79 52.9297 249.773 55.4752 250.729 57.5434L253.437 59.2934C253.437 59.2934 255.509 57.2252 255.509 50.7024C255.509 43.2251 251.366 30.6568 235.434 31.9296C224.281 32.8841 231.929 42.9069 231.929 42.9069Z" fill="#283C70"/>
<path d="M232.885 44.4963C232.885 44.4963 220.457 47.2009 219.024 57.0646L218.227 61.3601C218.227 61.3601 215.518 62.1555 215.359 61.3601C213.607 50.86 214.562 31.769 232.566 32.8826C241.169 33.3599 232.885 44.4963 232.885 44.4963Z" fill="#283C70"/>
<path d="M255.824 62.4756C255.346 65.1801 253.275 67.2483 251.044 66.9302C248.813 66.612 247.38 64.0665 247.858 61.3619C248.336 58.6574 250.407 56.5892 252.637 56.9074C254.708 57.0664 256.142 59.6119 255.824 62.4756Z" fill="#F2B39A"/>
<path d="M219.02 66.9324C221.251 66.6142 222.684 64.0687 222.366 61.3641C222.047 58.5005 219.817 56.5914 217.746 56.9096C215.515 57.2278 214.081 59.7732 214.4 62.4778C214.718 65.1824 216.79 67.2505 219.02 66.9324Z" fill="#F2B39A"/>
<path d="M195.762 174.634L179.83 177.338C177.281 177.815 174.891 176.065 174.413 173.52L167.721 135.497C167.243 132.951 168.996 130.565 171.545 130.247L187.477 127.383C190.027 126.906 192.416 128.656 192.894 131.201L199.427 169.224C199.905 171.77 198.152 174.156 195.762 174.634Z" fill="#283C70"/>
<path d="M195.761 168.905L177.917 172.087C177.279 172.246 176.642 171.769 176.483 171.133L170.269 135.496C170.11 134.86 170.588 134.223 171.225 134.064L189.069 130.882C189.707 130.723 190.344 131.201 190.503 131.837L196.717 167.474C196.717 168.269 196.239 168.905 195.761 168.905Z" fill="white"/>
<path d="M232.726 362.843L237.665 234.297H234.001L225.875 366.343C225.875 366.502 230.973 365.707 232.726 362.843Z" fill="#439AF7"/>
<path d="M244.353 364.909L235.59 254.181L237.82 234.453H240.529L250.566 368.409C250.407 368.409 245.468 367.613 244.353 364.909Z" fill="#439AF7"/>
<path d="M274.622 160.478L268.887 121.5L283.226 157.455L274.622 160.478Z" fill="#C7342E"/>
<path d="M274.628 160.478L278.292 197.546C278.292 197.546 266.821 205.978 242.285 208.842C242.285 208.842 275.424 184.023 268.892 121.5L274.628 160.478Z" fill="#C7342E"/>
<path d="M191.02 155.193C191.857 151.149 189.251 147.194 185.201 146.359C181.151 145.524 177.19 148.125 176.354 152.17C175.518 156.214 178.123 160.169 182.173 161.004C186.223 161.839 190.184 159.238 191.02 155.193Z" fill="#FD7068"/>
<path d="M184.608 148.066L180.625 155.066L183.811 154.43L183.174 159.203L187.157 152.203L183.971 152.839L184.608 148.066Z" fill="white"/>
<defs>
<filter id="filter0_f_3074-13840" x="0" y="106" width="483" height="477" filterUnits="userSpaceOnUse" color-interpolation-filters="sRGB">
<feFlood flood-opacity="0" result="BackgroundImageFix"/>
<feBlend mode="normal" in="SourceGraphic" in2="BackgroundImageFix" result="shape"/>
<feGaussianBlur stdDeviation="40" result="effect1_foregroundBlur_3074-13840"/>
</filter>
<radialGradient id="paint0_radial_3074-13840" cx="0" cy="0" r="1" gradientUnits="userSpaceOnUse" gradientTransform="translate(234.963 317.341) rotate(90) scale(164.66 168.086)">
<stop offset="0.401" stop-color="#67CEEC"/>
<stop offset="1" stop-color="#5DA1D5"/>
</radialGradient>
</defs>
</svg>
