<svg width="462" height="497" viewBox="0 0 462 497" fill="none" xmlns="http://www.w3.org/2000/svg">
<path fill-rule="evenodd" clip-rule="evenodd" d="M257.089 0.538998C179.691 7.97271 159.577 107.016 113.006 169.328C69.4974 227.267 -8.99387 270.995 0.844879 342.927C11.1209 417.92 84.8021 469.956 157.39 491.82C218.828 510.404 278.297 475.422 333.613 443.282C381.713 415.296 422.38 379.002 440.746 326.529C462.61 264.217 473.104 195.783 440.527 138.281C401.172 68.0983 337.33 -7.11335 257.089 0.538998Z" fill="url(#paint0_radial_3074-19494)"/>
<path d="M95.0858 139.597C92.0101 120.645 104.88 102.788 123.832 99.7123C142.784 96.6366 160.64 109.507 163.716 128.458C166.792 147.41 153.922 165.267 134.97 168.343C116.018 171.418 98.1615 158.548 95.0858 139.597Z" fill="#FD7068"/>
<path d="M122.191 108.109L145.148 137.844H130.5L136.84 160.145L113.664 130.411H128.313L122.191 108.109Z" fill="white"/>
<path d="M247.687 401.958C185.375 399.553 135.744 379.001 136.619 355.826C137.494 332.869 188.655 316.252 250.967 318.657C313.279 321.062 362.91 341.614 362.035 364.79C360.942 387.747 309.781 404.363 247.687 401.958Z" fill="#5895BA"/>
<path d="M245.282 381.409C246.157 381.627 255.34 387.53 257.526 392.559C258.619 394.964 246.157 418.796 243.97 420.545C238.504 424.699 229.978 422.95 229.978 422.95C226.698 422.95 223.637 421.638 222.325 417.484L224.949 379.004L242.44 378.348C242.44 378.566 244.408 381.19 245.282 381.409Z" fill="#0B1B45"/>
<path d="M239.379 288.266C239.379 288.266 177.067 289.577 156.734 292.857C136.401 296.137 133.34 304.445 131.372 309.911C129.623 315.158 181.659 344.674 233.257 342.925C240.254 342.707 246.813 344.674 252.498 348.829L285.075 373.535C285.075 373.535 351.322 372.223 344.545 357.137C318.308 298.104 302.129 300.291 293.383 302.914C277.86 307.506 239.379 288.266 239.379 288.266Z" fill="#283C70"/>
<path d="M130.719 310.789C130.719 310.789 144.712 284.115 202.214 331.56C259.716 378.786 261.027 389.936 261.027 389.936L222.11 394.746C222.328 394.527 116.507 331.122 130.719 310.789Z" fill="#283C70"/>
<path d="M200.902 190.098L185.816 230.764C183.41 239.729 172.916 243.227 165.263 238.198L148.647 227.048L147.116 248.911L171.167 265.309C180.131 271.431 192.375 268.589 197.403 258.969C206.368 242.352 218.611 219.833 218.611 219.177C218.83 218.083 200.902 190.098 200.902 190.098Z" fill="#F2B39A"/>
<path d="M218.83 166.047L183.192 215.897C187.564 233.169 196.966 242.133 208.772 246.725L229.543 202.341L218.83 166.047Z" fill="#FD7068"/>
<path d="M215.114 277.993C221.236 237.326 223.641 235.577 219.924 203.437C210.304 162.333 227.577 134.566 259.935 146.373L273.272 149.871C312.19 170.86 332.086 169.767 325.09 210.871L319.186 290.456C318.968 337.244 212.491 332.653 215.114 277.993Z" fill="#FD7068"/>
<path d="M299.507 226.609C303.442 259.187 291.199 291.108 271.302 322.373C271.302 322.373 303.88 323.685 318.31 302.914L320.715 269.244L299.507 226.609Z" fill="#C73F37"/>
<path d="M320.058 177.199C320.058 177.199 329.459 198.189 351.76 261.594C358.538 280.834 363.348 301.386 331.427 319.314L277.642 343.365L270.645 329.372C270.645 329.372 328.585 298.325 323.556 276.898C318.09 252.848 279.391 196.658 320.058 177.199Z" fill="#F2B39A"/>
<path d="M177.069 263.126L153.894 255.692C152.582 255.473 151.051 253.724 150.833 251.975L143.18 207.591C142.962 205.842 143.836 204.749 145.148 205.186L168.98 210.871C170.292 211.09 171.822 212.839 172.041 214.588L179.693 258.753C179.912 259.846 179.474 260.502 178.819 261.376L177.069 263.126Z" fill="#AEC7E6"/>
<path d="M156.515 223.55C156.515 223.55 150.831 253.722 150.612 251.973L140.992 208.027L143.615 205.403C143.834 205.184 144.49 204.966 145.146 205.184L168.978 210.869C169.852 211.088 170.289 211.525 170.945 212.181L156.515 223.55Z" fill="#BAD4F5"/>
<path d="M175.319 263.56L151.487 257.875C150.176 257.657 148.645 255.908 148.427 254.159L140.774 209.775C140.556 208.026 141.43 206.933 142.742 207.37L166.574 213.054C167.885 213.273 169.416 215.022 169.634 216.771L177.287 261.155C177.505 262.904 176.631 263.997 175.319 263.56Z" fill="white"/>
<path d="M174.007 263.342L150.831 257.876C149.519 257.658 147.989 255.908 147.989 254.378L140.555 211.306C140.336 209.557 141.211 208.464 142.523 208.901L165.698 214.367C167.01 214.586 168.322 216.335 168.541 217.865L175.974 260.937C176.193 262.686 175.318 263.561 174.007 263.342Z" fill="#283C70"/>
<path d="M149.52 248.037C145.803 248.693 142.305 246.288 141.649 242.571L139.681 231.858C139.025 228.141 141.43 224.642 145.147 223.987C148.864 223.331 152.362 225.736 153.018 229.453L154.986 240.166C155.642 243.664 153.237 247.381 149.52 248.037Z" fill="#F2B39A"/>
<path d="M296.447 215.242L315.906 270.339C318.749 274.712 358.541 254.378 355.261 247.819C354.605 246.507 333.397 180.041 310.659 169.328C291.856 160.582 286.171 190.098 296.447 215.242Z" fill="#FD7068"/>
<path d="M281.36 332.213L282.672 334.4C285.077 338.335 283.765 343.364 279.83 345.988L271.74 350.798C267.804 353.203 262.776 351.891 260.152 347.955L258.84 345.769C256.435 341.834 257.747 336.805 261.683 334.181L269.772 329.371C273.926 326.966 278.955 328.278 281.36 332.213Z" fill="#F2B39A"/>
<path d="M164.825 224.206C163.951 223.987 163.295 222.894 163.076 222.02L162.202 217.21C161.983 216.335 162.42 215.679 163.514 215.898C164.388 216.116 165.044 217.21 165.263 218.084L166.137 222.894C166.356 223.769 165.7 224.425 164.825 224.206Z" fill="white"/>
<path d="M246.597 162.112C245.285 169.327 248.564 177.635 260.59 180.259C275.457 183.539 285.952 164.517 280.704 159.488C275.894 154.678 276.769 156.646 266.493 153.367C256.217 150.087 248.564 149.65 246.597 162.112Z" fill="white"/>
<path d="M257.528 150.089C257.528 150.089 264.087 152.931 266.929 152.494C269.771 152.275 288.356 126.476 269.771 105.268C258.184 91.9311 233.915 108.766 233.915 108.766L257.528 150.089Z" fill="#283C70"/>
<path d="M221.454 138.72C212.708 123.852 212.271 107.892 220.798 103.082C229.106 98.0529 243.099 106.143 251.845 120.791C260.59 135.659 261.027 151.619 252.501 156.429C244.192 161.458 230.199 153.587 221.454 138.72Z" fill="#F2B39A"/>
<path d="M270.429 128.663C272.178 143.311 260.371 154.243 248.346 149.433C236.321 144.404 224.952 128.444 223.203 113.576C221.453 98.9277 229.543 90.838 241.568 95.8667C253.375 100.677 268.679 113.795 270.429 128.663Z" fill="#F2B39A"/>
<path d="M266.493 172.827L265.181 173.483C260.371 175.451 254.687 173.265 252.5 168.236L240.913 140.687C238.945 135.877 241.131 130.193 246.16 128.225L247.472 127.569C252.282 125.601 257.966 127.788 260.153 132.816L275.239 157.741C276.988 162.333 271.303 170.86 266.493 172.827Z" fill="#F2B39A"/>
<path d="M273.487 133.689C273.925 137.188 271.301 140.686 267.803 141.123C264.305 141.56 260.806 138.937 260.369 135.438C259.932 131.94 262.556 128.442 266.054 128.005C269.552 127.567 273.05 130.191 273.487 133.689Z" fill="#F2B39A"/>
<path d="M231.727 109.2C231.727 109.2 238.724 143.089 272.613 127.347C272.613 127.347 287.261 103.078 258.838 88.6479C233.695 75.7482 219.921 103.734 219.921 103.734L231.727 109.2Z" fill="#283C70"/>
<path d="M216.422 127.567C216.422 127.567 218.171 115.541 231.727 109.201L219.701 103.735C219.92 103.516 208.551 107.452 216.422 127.567Z" fill="#283C70"/>
<path d="M248.345 158.175C248.345 158.175 260.807 155.552 266.055 141.996C266.055 141.996 262.338 161.892 251.406 166.046L248.345 158.175Z" fill="#F09A82"/>
<path d="M208.989 365.011C208.114 364.574 193.903 360.638 184.72 361.95C180.347 362.606 149.956 387.093 148.426 390.154C145.146 396.932 152.143 403.054 152.143 403.054C153.892 405.678 157.609 407.427 165.042 405.896L217.734 384.251L215.329 365.886C215.548 365.667 210.082 365.448 208.989 365.011Z" fill="#0B1B45"/>
<path d="M344.329 357.357C344.329 357.357 337.988 335.93 304.974 344.238C266.712 353.64 202.213 361.292 202.213 361.292C202.213 361.292 196.747 384.468 201.558 389.715C220.798 393.432 326.4 396.712 342.798 373.317C348.264 365.884 344.329 357.357 344.329 357.357Z" fill="#283C70"/>
<defs>
<radialGradient id="paint0_radial_3074-19494" cx="0" cy="0" r="1" gradientUnits="userSpaceOnUse" gradientTransform="translate(230.625 248.489) rotate(90) scale(248.398 230.664)">
<stop offset="0.401" stop-color="#8BC8E6"/>
<stop offset="1" stop-color="#60A1D8"/>
</radialGradient>
</defs>
</svg>
