<svg width="24" height="24" viewBox="0 0 24 24" fill="none" xmlns="http://www.w3.org/2000/svg">
<g clip-path="url(#clip0_3074-19457)">
<path d="M14.8125 13.4062C18.3019 13.4062 21.1406 10.5676 21.1406 7.07812C21.1406 3.58868 18.3019 0.75 14.8125 0.75C11.3231 0.75 8.48438 3.58868 8.48438 7.07812C8.48438 10.5676 11.3231 13.4062 14.8125 13.4062ZM14.1094 3.69196V2.88757C14.1094 2.49884 14.424 2.18445 14.8125 2.18445C15.201 2.18445 15.5156 2.49884 15.5156 2.88757V3.69983C15.9796 3.86591 16.3859 4.17847 16.639 4.61646C16.834 4.953 16.7186 5.38275 16.3828 5.57703C16.0437 5.77277 15.6152 5.65668 15.4222 5.32104C15.2966 5.10333 15.0632 4.96875 14.8125 4.96875C14.4245 4.96875 14.1094 5.28387 14.1094 5.67188C14.1094 6.05988 14.4245 6.375 14.8125 6.375C15.9756 6.375 16.9219 7.32129 16.9219 8.48438C16.9219 9.3999 16.3323 10.173 15.5156 10.4643V11.2407C15.5156 11.6292 15.201 11.9438 14.8125 11.9438C14.424 11.9438 14.1094 11.6292 14.1094 11.2407V10.4564C13.6454 10.2902 13.2391 9.97778 12.986 9.53979C12.791 9.20325 12.9064 8.7735 13.2422 8.57922C13.5786 8.38147 14.009 8.49884 14.2028 8.83521C14.3284 9.05292 14.5618 9.1875 14.8125 9.1875C15.2005 9.1875 15.5156 8.87238 15.5156 8.48438C15.5156 8.09637 15.2005 7.78125 14.8125 7.78125C13.6494 7.78125 12.7031 6.83496 12.7031 5.67188C12.7031 4.75635 13.2927 3.98328 14.1094 3.69196Z" fill="white"/>
<path d="M23.1802 14.3119C22.6859 14.1172 22.1228 14.2447 21.7603 14.6328C21.7659 14.627 20.3793 16.0662 18.2296 18.3563C17.8922 18.7361 17.4282 18.9611 16.9219 19.0032C16.784 19.0493 11.3719 19.0314 11.2266 19.0314C10.8327 19.0314 10.5234 18.722 10.5234 18.3283C10.5234 17.9344 10.8327 17.6252 11.2266 17.6252H16.2188C16.9955 17.6252 17.625 16.9955 17.625 16.2189C17.625 15.4422 16.9955 14.8127 16.2188 14.8127H12.2672L11.7328 14.3485C9.86957 12.7302 7.09918 12.7302 5.2359 14.3485L4.7016 14.8127H0.703125C0.314758 14.8127 0 15.1274 0 15.5158V21.1408C0 21.5291 0.314758 21.8439 0.703125 21.8439H4.87024C5.25 21.9563 5.62958 22.1252 6.03754 22.294C7.07812 22.7439 8.25952 23.2502 9.94684 23.2502H16.9219C18.0286 23.2502 19.0704 22.7292 19.7344 21.8439L23.5781 16.7814C23.8594 16.4157 24 15.9798 24 15.5158C23.9998 14.9839 23.6746 14.5067 23.1802 14.3119Z" fill="white"/>
</g>
<defs>
<clipPath id="clip0_3074-19457">
<rect width="24" height="24" fill="white"/>
</clipPath>
</defs>
</svg>
