<svg width="24" height="24" viewBox="0 0 24 24" fill="none" xmlns="http://www.w3.org/2000/svg">
<path d="M14.483 5.36696C15.5927 6.06273 16.3708 7.24011 16.5125 8.60679C16.965 8.81825 17.4673 8.93985 17.9999 8.93985C19.944 8.93985 21.5197 7.36411 21.5197 5.42027C21.5197 3.47613 19.944 1.90039 17.9999 1.90039C16.0743 1.90099 14.5123 3.44858 14.483 5.36696ZM12.177 12.5738C14.1212 12.5738 15.6969 10.9978 15.6969 9.05397C15.6969 7.11013 14.1209 5.53439 12.177 5.53439C10.2332 5.53439 8.65653 7.11042 8.65653 9.05427C8.65653 10.9981 10.2332 12.5738 12.177 12.5738ZM13.6701 12.8138H10.6833C8.19828 12.8138 6.17656 14.8358 6.17656 17.3208V20.9734L6.18585 21.0306L6.43744 21.1094C8.80899 21.8504 10.8693 22.0975 12.5652 22.0975C15.8775 22.0975 17.7974 21.1531 17.9157 21.0929L18.1508 20.974H18.176V17.3208C18.1769 14.8358 16.1551 12.8138 13.6701 12.8138ZM19.4935 9.18006H16.5298C16.4978 10.3658 15.9916 11.4336 15.191 12.2016C17.3999 12.8584 19.0161 14.9068 19.0161 17.3262V18.4518C21.9423 18.3446 23.6286 17.5152 23.7397 17.4595L23.9748 17.3403H24V13.6865C24 11.2018 21.9783 9.18006 19.4935 9.18006ZM6.00075 8.94045C6.68933 8.94045 7.32999 8.73948 7.87271 8.39713C8.04523 7.27186 8.64845 6.28856 9.51015 5.61885C9.51374 5.55296 9.52003 5.48766 9.52003 5.42117C9.52003 3.47703 7.94399 1.90129 6.00075 1.90129C4.05631 1.90129 2.48087 3.47703 2.48087 5.42117C2.48087 7.36441 4.05631 8.94045 6.00075 8.94045ZM9.16181 12.2016C8.36511 11.4375 7.86073 10.3754 7.82389 9.19683C7.71397 9.18875 7.60524 9.18006 7.49322 9.18006H4.50678C2.02171 9.18006 0 11.2018 0 13.6865V17.3397L0.00928491 17.396L0.260876 17.4754C2.16338 18.0693 3.86133 18.3431 5.33613 18.4293V17.3262C5.33673 14.9068 6.9523 12.859 9.16181 12.2016Z" fill="white"/>
</svg>
