<svg width="580" height="575" viewBox="0 0 580 575" fill="none" xmlns="http://www.w3.org/2000/svg">
<g filter="url(#filter0_f_3074-16057)">
<path fill-rule="evenodd" clip-rule="evenodd" d="M278.657 115.697C326.06 120.323 356.507 161.185 392.541 192.409C433.393 227.682 493.129 252.546 499.296 306.321C505.655 362.41 468.079 416.957 422.024 449.723C381.365 478.635 328.373 458.204 278.657 463.022C218.535 468.805 150.898 519.496 105.036 480.177C59.1737 441.049 89.0419 366.265 95.7863 306.514C101.567 256.593 105.807 204.745 140.685 168.509C176.141 131.31 227.784 110.879 278.657 115.697Z" fill="#AEE8FF"/>
</g>
<path fill-rule="evenodd" clip-rule="evenodd" d="M278.657 93.1768C326.06 97.7968 356.506 138.607 392.541 169.792C433.393 205.019 493.129 229.852 499.296 283.559C505.655 339.577 468.079 394.055 422.024 426.78C381.365 455.655 328.373 435.25 278.657 440.062C218.535 445.837 150.898 496.465 105.036 457.194C59.1736 418.117 89.0418 343.427 95.7863 283.752C101.567 233.894 105.807 182.112 140.685 145.922C176.141 108.769 227.784 88.3643 278.657 93.1768Z" fill="url(#paint0_radial_3074-16057)"/>
<path d="M281.932 18.6799C282.317 19.0649 282.702 19.2574 283.088 18.8724L292.145 11.5574C292.53 11.3649 292.53 10.7874 292.145 10.4024C291.759 10.0174 291.374 9.82486 290.988 10.2099L281.932 17.5249C281.739 17.7174 281.739 18.2949 281.932 18.6799Z" fill="#F2B39A"/>
<path d="M289.83 374.612C295.226 374.612 300.429 374.804 305.439 375.382C311.22 370.569 325.287 367.297 341.859 367.297C363.441 367.297 380.977 373.072 380.977 380.002C380.977 386.354 367.102 391.359 348.796 392.514C348.989 393.092 348.989 393.284 348.989 393.862C348.989 404.449 322.396 413.112 289.83 413.112C257.072 413.112 230.672 404.449 230.672 393.862C230.672 383.274 257.072 374.612 289.83 374.612Z" fill="#5895BA"/>
<path d="M328.181 380.58L333.192 349.78C334.926 346.7 339.551 343.235 343.79 341.503C345.717 340.733 347.451 341.31 348.607 343.043L351.113 346.123C354.966 351.513 356.701 352.86 354.388 356.903L340.514 380.773C338.202 386.74 325.291 392.323 328.181 380.58Z" fill="#273866"/>
<path d="M334.538 350.743C334.538 350.743 331.841 368.838 333.768 369.03C340.898 369.415 348.027 345.16 348.027 345.16C348.027 345.16 336.465 348.818 334.538 350.743Z" fill="#F2B39A"/>
<path d="M347.642 343.619C349.377 347.662 340.32 354.977 334.539 350.934C311.415 315.899 307.754 309.547 300.431 290.104C290.411 262.769 322.592 228.697 324.133 261.614C325.868 292.414 334.154 314.937 347.642 343.619Z" fill="#F2B39A"/>
<path d="M306.019 303.774L325.288 289.914L330.106 298.192L336.465 318.597C336.465 318.597 323.169 312.822 309.487 310.512L306.019 303.774Z" fill="#E37B8E"/>
<path d="M243.972 390.59L264.205 366.912C267.288 365.18 272.877 364.41 277.694 365.372C279.814 365.757 280.777 367.105 280.97 369.222L281.548 373.072C282.126 379.617 282.897 381.735 278.85 384.045L254.763 397.135C249.367 400.985 235.493 399.252 243.972 390.59Z" fill="#273866"/>
<path d="M264.975 368.451C264.975 368.451 253.413 382.504 254.762 383.466C260.735 387.509 275.188 374.996 275.188 374.996C275.188 374.996 267.672 367.874 264.975 368.451Z" fill="#F2B39A"/>
<path d="M278.273 370.571C277.695 377.116 268.253 377.309 265.363 372.111C256.884 307.431 245.708 201.171 245.708 201.171L303.324 181.344C294.267 260.269 283.862 306.854 278.273 370.571Z" fill="#F2B39A"/>
<path d="M257.46 307.429C257.46 307.429 278.849 320.712 282.125 333.802L286.172 302.039L257.46 307.429Z" fill="#E37B8E"/>
<path d="M285.591 0.00751098C285.591 0.00751098 302.548 -0.762487 312.568 13.29C322.589 27.15 323.552 42.935 335.885 44.2825C348.217 45.4375 350.144 56.2175 346.098 66.6126C342.051 77.0076 365.175 88.3651 342.822 95.6801C320.469 102.803 287.903 103.765 287.132 88.9426C286.361 74.1201 262.852 58.7201 259.576 33.695C257.649 20.22 285.591 0.00751098 285.591 0.00751098Z" fill="#683534"/>
<path d="M292.919 36.0038C292.919 36.0038 302.747 51.4038 312.574 53.1363C322.594 54.8688 331.073 72.3863 338.588 72.3863C346.104 72.1938 355.353 82.7813 352.27 89.1338C349.187 95.4863 331.844 100.684 330.495 100.299C329.146 99.9138 275.576 73.5413 268.254 56.9863C260.931 40.4313 270.181 32.7313 270.181 32.7313C270.181 32.7313 285.982 25.2237 292.919 36.0038Z" fill="#3C1918"/>
<path d="M240.888 166.713C240.888 166.713 244.163 199.63 243.971 216.955C243.778 234.473 238.768 299.73 238.768 299.73C288.099 326.68 307.754 294.725 330.107 298.19C343.017 300.308 347.642 282.598 333.19 256.418C318.738 230.045 332.226 183.46 322.784 159.59C313.342 135.335 240.888 166.713 240.888 166.713Z" fill="#52A6FF"/>
<path d="M149.549 174.607C145.695 171.912 144.539 166.907 146.851 163.827L151.861 156.897C154.174 153.817 159.184 153.432 163.038 156.319C166.892 159.014 168.048 164.019 165.735 167.099L160.725 174.029C158.413 177.109 153.403 177.494 149.549 174.607Z" fill="#F2B39A"/>
<path d="M258.422 86.8234C258.422 86.8234 241.079 58.9109 274.415 58.1409C276.728 58.1409 280.389 56.4084 283.087 56.6009C296.576 57.9484 306.018 59.6809 315.845 63.9159C319.699 65.4559 319.892 74.1184 319.507 78.1609L316.424 91.0584L258.422 86.8234Z" fill="#F2B39A"/>
<path d="M288.294 66.2291L287.138 66.4216C283.476 66.9991 280.201 64.4966 279.622 60.8391L276.732 40.6266C276.154 36.9691 278.659 33.6966 282.32 33.1191L283.476 32.9266C287.138 32.3491 290.414 34.8516 290.992 38.5091L296.965 58.9141C297.736 62.5716 291.955 65.6516 288.294 66.2291Z" fill="#F2B39A"/>
<path d="M278.462 51.9823C278.462 51.9823 287.133 52.3673 292.914 44.0898C292.914 44.0898 287.326 56.7948 279.232 57.7573L278.462 51.9823Z" fill="#E37B8E"/>
<path d="M258.037 22.3389C258.037 22.3389 255.339 36.7764 268.25 40.0489C281.161 43.3214 278.656 9.44141 278.656 9.44141L258.037 22.3389Z" fill="#683534"/>
<path d="M291.372 9.63156C287.325 4.62656 282.315 3.85656 278.461 7.32157C273.644 5.78157 268.826 8.86157 265.936 15.9841C261.889 25.9941 262.853 41.3941 268.634 48.7091C271.139 51.9816 274.415 52.5591 277.691 52.1741C280.581 51.9816 283.471 51.4041 285.977 50.0566C295.226 45.6291 296.19 40.8166 298.887 34.0791C302.549 24.2616 297.153 16.9466 291.372 9.63156Z" fill="#F2B39A"/>
<path d="M286.748 14.6364C287.326 22.7214 289.446 28.3039 295.419 31.3839C295.419 31.3839 296.383 39.4689 297.346 42.1639C297.346 42.1639 315.267 43.8964 308.908 22.1439C301.008 -4.99861 287.712 10.5939 287.712 10.5939L286.748 14.6364Z" fill="#683534"/>
<path d="M300.817 34.0805C300.239 37.5455 297.734 40.0481 295.036 39.4706C292.531 39.0856 290.796 36.0056 291.374 32.3481C291.953 28.8831 294.458 26.3805 297.155 26.958C299.853 27.5355 301.395 30.6155 300.817 34.0805Z" fill="#F2B39A"/>
<path d="M186.161 141.497C186.161 141.497 189.436 146.31 190.207 155.357C190.4 158.245 193.29 160.17 196.181 159.4C203.311 156.897 214.873 153.047 217.763 151.507C222.195 149.39 241.465 120.13 241.465 120.13L267.094 58.337C267.094 58.337 248.209 57.952 242.043 71.812C232.986 92.217 220.846 108.195 219.69 109.927C218.534 111.66 204.852 130.14 198.493 133.22C192.52 136.3 184.041 136.3 186.161 141.497Z" fill="#439AF7"/>
<path d="M270.371 57.1809C272.105 56.7959 273.454 58.3359 273.069 59.8759C271.527 66.9984 269.215 82.976 279.813 83.9385C291.183 85.0935 296.578 65.8434 298.12 59.4909C298.312 58.3359 299.469 57.7584 300.625 58.1434L308.911 60.8384L319.509 92.2159C319.509 92.2159 310.26 118.011 313.728 126.288C317.197 134.566 324.134 156.126 322.592 159.206C321.051 162.286 323.363 165.558 290.026 174.799C283.86 176.531 249.174 173.836 247.247 167.098C245.32 160.361 254.955 132.833 254.763 124.748C254.377 116.856 246.284 106.461 250.523 92.4085C254.763 78.5484 260.351 58.3359 260.351 58.3359L270.371 57.1809Z" fill="#52A6FF"/>
<path d="M262.085 221.19C265.168 219.65 276.73 210.602 279.043 207.33C287.521 198.667 292.339 185.192 291.568 168.637C289.834 132.447 262.278 94.717 229.712 84.707C214.489 79.8945 201 82.2045 191.172 89.5195C190.209 90.097 169.012 104.919 169.012 104.919C165.929 108.192 172.481 106.267 170.554 110.694C166.314 118.779 164.195 128.597 164.773 140.147C166.507 176.337 194.063 214.067 226.629 224.077C240.118 228.312 252.45 226.965 262.085 221.19Z" fill="#C7342E"/>
<path d="M250.907 227.929C274.994 212.721 276.728 172.489 254.761 138.031C232.793 103.574 195.795 87.9812 171.708 103.189C147.621 118.396 145.887 158.629 167.854 193.086C189.629 227.544 226.82 243.136 250.907 227.929Z" fill="#FD7068"/>
<path d="M322.787 159.588C319.511 151.118 308.335 149.578 295.231 150.926C295.617 152.081 295.809 153.236 296.195 154.391C314.116 213.488 317.777 264.309 294.653 307.621C308.527 303.771 318.355 296.456 330.11 298.189C333.578 298.766 341.286 298.959 341.672 297.804C343.213 291.836 343.791 275.666 333.193 256.224C318.548 230.044 332.037 183.458 322.787 159.588Z" fill="#439AF7"/>
<path d="M295.228 159.014C295.228 159.014 294.843 123.787 295.228 119.744C295.806 113.392 300.624 103.189 307.175 91.0617C313.149 80.0892 312.956 118.397 312.956 118.397L320.857 138.609L323.555 161.902L295.228 159.014Z" fill="#439AF7"/>
<path d="M328.566 97.2199C328.566 97.2199 326.447 139.955 316.041 157.665C306.021 174.797 281.163 195.78 281.163 195.78L271.335 192.122C282.319 175.952 291.568 158.435 300.625 143.997L310.645 77.7773L328.566 97.2199Z" fill="#F2B39A"/>
<path d="M306.598 87.7888C306.598 87.7888 306.02 116.471 300.046 131.486C295.036 144.384 319.316 147.849 323.17 143.036C327.024 138.224 332.42 102.226 332.805 97.2213C333.19 92.0238 334.925 66.4213 309.103 61.0312L306.598 87.7888Z" fill="#52A6FF"/>
<path d="M263.625 205.985C260.156 202.905 259.578 197.9 262.083 195.012L274.416 186.735C277.114 183.847 275.572 186.157 278.848 189.237C282.316 192.317 285.207 190.007 281.353 196.552L273.645 204.637C272.682 205.792 271.525 206.562 270.177 207.14C268.25 208.487 266.323 208.487 263.625 205.985Z" fill="#F2B39A"/>
<path d="M267.673 57.5639C267.673 57.5639 263.626 76.8139 269.021 82.5889C274.032 88.3639 280.005 88.9415 285.208 87.7865C289.833 86.6315 298.504 80.0864 301.395 70.0764C304.285 60.0664 304.285 59.2964 304.285 59.2964L300.817 58.1414C300.817 58.1414 299.082 56.9864 298.312 59.4889C297.733 61.9914 292.531 82.5889 280.969 82.2039C269.6 81.6264 273.261 60.6439 273.261 60.6439L273.453 59.6814C273.453 59.6814 274.417 56.6014 270.756 56.9864C266.709 57.3714 267.673 57.5639 267.673 57.5639Z" fill="white"/>
<path opacity="0.54" d="M328.562 290.105C331.837 290.105 334.535 287.41 334.535 283.945C334.535 280.673 331.837 277.785 328.562 277.785C325.286 277.785 322.588 280.48 322.588 283.945C322.395 287.41 325.093 290.105 328.562 290.105Z" fill="white"/>
<path opacity="0.54" d="M288.677 290.105C291.953 290.105 294.844 287.41 294.844 283.945C294.844 280.673 292.146 277.785 288.677 277.785C285.209 277.785 282.704 280.48 282.704 283.945C282.511 287.41 285.209 290.105 288.677 290.105Z" fill="white"/>
<path opacity="0.54" d="M247.628 290.105C250.904 290.105 253.602 287.41 253.602 283.945C253.602 280.673 250.904 277.785 247.628 277.785C244.352 277.785 241.654 280.48 241.654 283.945C241.462 287.41 244.159 290.105 247.628 290.105Z" fill="white"/>
<path opacity="0.54" d="M266.706 259.499C269.982 259.499 272.68 256.804 272.68 253.339C272.68 249.874 269.982 247.371 266.706 247.371C263.43 247.371 260.732 250.066 260.732 253.339C260.732 256.611 263.237 259.499 266.706 259.499Z" fill="white"/>
<path opacity="0.54" d="M309.295 259.499C312.57 259.499 315.461 256.804 315.461 253.339C315.461 249.874 312.763 247.371 309.295 247.371C306.019 247.371 303.321 250.066 303.321 253.339C303.321 256.611 306.019 259.499 309.295 259.499Z" fill="white"/>
<path opacity="0.54" d="M287.331 233.703C290.607 233.703 293.305 231.008 293.305 227.543C293.305 224.27 290.607 221.383 287.331 221.383C284.055 221.383 281.357 224.078 281.357 227.543C281.165 231.008 283.863 233.703 287.331 233.703Z" fill="white"/>
<path opacity="0.54" d="M311.222 208.87C314.498 208.87 317.195 206.175 317.195 202.71C317.195 199.437 314.498 196.742 311.222 196.742C307.946 196.742 305.248 199.437 305.248 202.71C305.248 206.175 307.946 208.87 311.222 208.87Z" fill="white"/>
<path opacity="0.54" d="M297.73 136.875C297.73 140.148 295.033 143.035 291.757 143.035C288.481 143.035 285.783 140.34 285.783 136.875C285.783 133.603 288.481 130.908 291.757 130.908C294.84 130.715 297.73 133.603 297.73 136.875Z" fill="white"/>
<path opacity="0.54" d="M322.397 133.795C325.673 133.795 328.371 131.1 328.371 127.828C328.371 124.555 325.673 121.668 322.397 121.668C319.122 121.668 316.424 124.363 316.424 127.828C316.424 131.1 319.122 133.795 322.397 133.795Z" fill="white"/>
<path opacity="0.54" d="M311.222 95.2955C314.498 95.2955 317.195 92.6005 317.195 89.1355C317.195 85.863 314.498 83.168 311.222 83.168C307.946 83.168 305.248 85.863 305.248 89.1355C305.248 92.6005 307.946 95.2955 311.222 95.2955Z" fill="white"/>
<path opacity="0.54" d="M280.582 98.9519C280.582 102.224 277.884 105.112 274.608 105.112C271.333 105.112 268.442 102.417 268.442 98.9519C268.442 95.6794 271.14 92.9844 274.608 92.9844C277.692 92.9844 280.582 95.6794 280.582 98.9519Z" fill="white"/>
<path opacity="0.54" d="M247.628 83.9361C250.904 83.9361 253.602 81.2411 253.602 77.7761C253.602 74.5036 250.904 71.8086 247.628 71.8086C244.352 71.8086 241.654 74.5036 241.654 77.7761C241.462 81.2411 244.159 83.9361 247.628 83.9361Z" fill="white"/>
<path d="M224.316 126.48L188.859 161.323L209.285 167.098L198.301 197.513L233.758 162.671L213.332 156.895L224.316 126.48Z" fill="white"/>
<path d="M292.917 16.562C281.355 13.2894 272.491 7.89945 257.654 26.572C255.919 24.4545 256.883 19.4495 260.159 16.562C266.518 10.4019 270.564 3.85694 278.272 1.35444L280.007 0.969445C291.376 -1.53306 298.12 2.12444 302.552 12.9044C302.938 13.8669 305.635 18.102 305.828 18.872L301.974 18.102C303.708 24.4545 299.469 15.0219 292.917 16.562Z" fill="#683534"/>
<defs>
<filter id="filter0_f_3074-16057" x="0" y="35" width="580" height="540" filterUnits="userSpaceOnUse" color-interpolation-filters="sRGB">
<feFlood flood-opacity="0" result="BackgroundImageFix"/>
<feBlend mode="normal" in="SourceGraphic" in2="BackgroundImageFix" result="shape"/>
<feGaussianBlur stdDeviation="40" result="effect1_foregroundBlur_3074-16057"/>
</filter>
<radialGradient id="paint0_radial_3074-16057" cx="0" cy="0" r="1" gradientUnits="userSpaceOnUse" gradientTransform="translate(290.01 282.154) rotate(90) scale(189.625 210.041)">
<stop offset="0.401" stop-color="#67CEEC"/>
<stop offset="1" stop-color="#5EA2D6"/>
</radialGradient>
</defs>
</svg>
