<svg width="24" height="24" viewBox="0 0 24 24" fill="none" xmlns="http://www.w3.org/2000/svg">
<g clip-path="url(#clip0_3074:26983)">
<path d="M13.9921 6.07617C12.3853 6.16347 10.8021 6.50536 9.3024 7.08927C7.8934 7.66941 6.58081 8.46052 5.41049 9.43595L5.13672 9.66465L13.196 9.26264L13.9921 6.07617Z" fill="white"/>
<path d="M0 15.3885H0.887443C0.892345 15.3554 0.900516 15.3238 0.906537 15.2911C0.913675 15.2482 0.920556 15.2097 0.929673 15.1692C0.941456 15.1149 0.956078 15.0618 0.97242 15.0083C0.982655 14.9705 0.992632 14.9324 1.00467 14.8955C1.02282 14.8399 1.04364 14.7858 1.06462 14.7318C1.07795 14.6985 1.08939 14.665 1.10333 14.6324C1.11683 14.5999 1.13489 14.5652 1.15115 14.5312H0V15.3885Z" fill="white"/>
<path d="M6.00059 15.8168C6.00059 17.0001 5.04116 17.9596 3.85785 17.9596C2.67428 17.9596 1.71484 17.0001 1.71484 15.8168C1.71484 14.6333 2.67428 13.6738 3.85785 13.6738C5.04116 13.6738 6.00059 14.6333 6.00059 15.8168Z" fill="white"/>
<path d="M20.5188 6.49827L17.0015 6.12713C16.398 6.06409 15.7912 6.03261 15.1845 6.03321C15.0847 6.03321 14.9848 6.03803 14.8845 6.03975L14.0898 9.21763L19.0343 8.97061L20.5188 6.49827Z" fill="white"/>
<path d="M21.8718 12.4932L21.4433 10.7789C21.4114 10.6508 21.4404 10.5152 21.5216 10.4112C21.6025 10.3074 21.7271 10.2465 21.8592 10.2465H23.8816L22.3816 8.37151C22.277 8.24095 22.2579 8.0617 22.3327 7.91196L22.9133 6.75067L21.4623 6.59766L19.6549 9.61021C19.5814 9.73278 19.4518 9.81061 19.3089 9.81801L13.8762 10.0889L12.9795 13.675H15.8592V14.5323H12.7653L12.5508 15.3895H17.1752C17.1799 15.3564 17.1882 15.3248 17.1942 15.2922C17.2014 15.2492 17.2083 15.2107 17.2174 15.1702C17.2292 15.1159 17.2438 15.0628 17.2601 15.0093C17.2704 14.9715 17.2803 14.9334 17.2924 14.8965C17.3103 14.8409 17.3313 14.7868 17.3522 14.7328C17.3657 14.6995 17.3771 14.666 17.391 14.6334C17.4175 14.5721 17.4474 14.5127 17.4764 14.4534C17.4887 14.4297 17.4989 14.4055 17.5115 14.3823C17.5559 14.3013 17.6037 14.2227 17.6553 14.1462C17.6668 14.1289 17.6803 14.1135 17.6916 14.0964C17.7346 14.0377 17.7775 13.9797 17.8202 13.9249C17.8412 13.8992 17.8629 13.8752 17.8858 13.8499C17.9248 13.8072 17.9635 13.7613 18.0045 13.7214C18.0305 13.6949 18.058 13.6699 18.0856 13.6448C18.1256 13.607 18.1653 13.5693 18.2072 13.5336C18.2368 13.5084 18.2678 13.4849 18.2985 13.4608C18.3413 13.4278 18.3844 13.3956 18.4271 13.3647C18.4596 13.3422 18.4926 13.3219 18.5268 13.299C18.5695 13.2702 18.6161 13.2422 18.6623 13.2162C18.6971 13.1959 18.7322 13.177 18.768 13.1584C18.8154 13.1337 18.8633 13.1107 18.9123 13.0889C18.9487 13.0721 18.985 13.0559 19.0218 13.0409C19.0725 13.0203 19.1244 13.0022 19.1764 12.9844C19.2135 12.9714 19.2504 12.9583 19.2885 12.9469C19.3433 12.9309 19.399 12.9174 19.4549 12.9041C19.4917 12.8957 19.5278 12.8857 19.5649 12.8784C19.6275 12.8659 19.6913 12.8573 19.7555 12.8491C19.7873 12.8449 19.8186 12.8389 19.8508 12.8361C19.9472 12.8266 20.0454 12.8209 20.1444 12.8209C20.2924 12.822 20.4402 12.8341 20.5861 12.8573C20.6154 12.8617 20.6449 12.8655 20.6721 12.8706C20.8093 12.8949 20.9443 12.9289 21.0769 12.9719C21.1008 12.9801 21.1243 12.9897 21.148 12.9984C21.2688 13.041 21.3863 13.0917 21.5004 13.1496C21.5167 13.1578 21.5338 13.1646 21.5495 13.1733C21.6695 13.2383 21.785 13.3111 21.8951 13.3913C21.9201 13.4094 21.9445 13.4278 21.969 13.4466C22.0769 13.5291 22.179 13.6183 22.2749 13.7145C22.2872 13.7267 22.2979 13.7402 22.3094 13.7527C22.3963 13.8435 22.4771 13.9397 22.5517 14.0411C22.5674 14.0628 22.5846 14.0841 22.6001 14.1059C22.6771 14.2163 22.7467 14.3321 22.8083 14.4518C22.8221 14.4783 22.8342 14.5053 22.8471 14.5319C22.9066 14.6543 22.9575 14.7807 22.9999 14.9102C22.9999 14.9147 23.0037 14.9188 23.005 14.9232L24.002 13.9262V12.818H22.2877C22.0909 12.818 21.9196 12.6841 21.8718 12.4932ZM18.8592 11.5323H16.2877V10.675H18.8592V11.5323Z" fill="white"/>
<path d="M22.4062 11.1035L22.6205 11.9605H24.0002V11.1035H22.4062Z" fill="white"/>
<path d="M22.2858 15.8168C22.2858 17.0001 21.3263 17.9596 20.1427 17.9596C18.9594 17.9596 18 17.0001 18 15.8168C18 14.6333 18.9594 13.6738 20.1427 13.6738C21.3263 13.6738 22.2858 14.6333 22.2858 15.8168Z" fill="white"/>
<path d="M12.0939 13.675L12.9793 10.1328L3.72884 10.5941L1.09387 11.6181C0.417576 11.997 -0.000773009 12.7121 1.07237e-06 13.4875V13.675H1.7619C1.7736 13.6635 1.78633 13.6527 1.79871 13.6416C1.83871 13.6039 1.87836 13.5663 1.92033 13.5309C1.95 13.5054 1.98096 13.4818 2.01158 13.458C2.05467 13.4248 2.09742 13.3926 2.14043 13.3619C2.17285 13.3391 2.20588 13.3189 2.23977 13.2957C2.2826 13.2672 2.3293 13.2391 2.37557 13.2131C2.41032 13.193 2.44541 13.1742 2.48102 13.1553C2.5285 13.1309 2.57658 13.1077 2.62552 13.0858C2.6619 13.0691 2.69837 13.0528 2.73518 13.0379C2.78575 13.0172 2.83762 12.9992 2.88939 12.9811C2.92681 12.9685 2.96371 12.9551 3.00164 12.9439C3.0566 12.9276 3.11233 12.9145 3.16815 12.9011C3.20487 12.8925 3.241 12.8827 3.27807 12.8754C3.3406 12.863 3.40459 12.8544 3.46892 12.8462C3.50057 12.8422 3.53197 12.8361 3.56405 12.8331C3.66038 12.8236 3.7586 12.818 3.8576 12.818C3.9566 12.818 4.05473 12.8236 4.15115 12.8331C4.18332 12.8361 4.21462 12.8422 4.24645 12.8462C4.31069 12.8544 4.37494 12.863 4.43704 12.8754C4.4742 12.8827 4.51024 12.8925 4.54705 12.9011C4.60295 12.9145 4.65869 12.9276 4.71348 12.9439C4.75158 12.9551 4.78848 12.9685 4.82572 12.9811C4.87758 12.9992 4.92944 13.0172 4.98019 13.0379C5.01692 13.0528 5.0533 13.0691 5.08977 13.0858C5.13871 13.1077 5.18653 13.1288 5.234 13.1553C5.26978 13.1742 5.30487 13.193 5.33962 13.2131C5.38581 13.2391 5.43088 13.2672 5.47543 13.2957C5.5094 13.3173 5.54235 13.3386 5.57486 13.3619C5.6176 13.3926 5.6607 13.4248 5.70344 13.458C5.73441 13.4818 5.76537 13.5054 5.79478 13.5309C5.83762 13.5663 5.87658 13.6039 5.9164 13.6416C5.94392 13.6668 5.97145 13.6918 5.99742 13.7185C6.04043 13.7613 6.07715 13.8039 6.11611 13.8469C6.13796 13.8723 6.15903 13.8962 6.18174 13.922C6.22707 13.9777 6.26758 14.0356 6.31032 14.0935C6.32193 14.1106 6.33527 14.126 6.3467 14.1431C6.39822 14.2194 6.44604 14.2981 6.49043 14.3793C6.50307 14.4024 6.51365 14.4267 6.52552 14.4504C6.55588 14.5095 6.5859 14.5691 6.61092 14.6304C6.62494 14.663 6.6363 14.6964 6.64971 14.7297C6.6707 14.7838 6.69272 14.8378 6.70958 14.8935C6.7217 14.9305 6.7316 14.9685 6.74183 15.0061C6.75688 15.0598 6.7715 15.113 6.78492 15.1674C6.79369 15.2078 6.80075 15.2479 6.80771 15.2891C6.81373 15.3216 6.82208 15.3534 6.82681 15.3865H11.6654L11.8797 14.5294H7.28575V13.675H12.0939ZM9.4285 10.675H11.5715V11.5323H9.4285V10.675Z" fill="white"/>
</g>
<defs>
<clipPath id="clip0_3074:26983">
<rect width="24" height="24" fill="white"/>
</clipPath>
</defs>
</svg>
