<svg width="28" height="28" viewBox="0 0 28 28" fill="none" xmlns="http://www.w3.org/2000/svg">
<g clip-path="url(#clip0_3074:27026)">
<path d="M26.8134 14.0115C26.5902 13.7625 21.2228 7.9082 14.5 7.9082C7.77727 7.9082 2.40989 13.7625 2.18669 14.0115C1.93777 14.2897 1.93777 14.7103 2.18669 14.9885C2.40989 15.2375 7.77737 21.0918 14.5 21.0918C21.2227 21.0918 26.5902 15.2375 26.8134 14.9885C27.0622 14.7103 27.0622 14.2897 26.8134 14.0115ZM14.5 19.627C11.6733 19.627 9.37307 17.3267 9.37307 14.5C9.37307 11.6733 11.6733 9.37305 14.5 9.37305C17.3267 9.37305 19.627 11.6733 19.627 14.5C19.627 17.3267 17.3267 19.627 14.5 19.627Z" fill="white"/>
<path d="M15.2305 13.0352C15.2305 12.2983 15.5962 11.6501 16.1527 11.2515C15.6534 10.9958 15.0964 10.8379 14.498 10.8379C12.4789 10.8379 10.8359 12.4808 10.8359 14.5C10.8359 16.5192 12.4789 18.1621 14.498 18.1621C16.3059 18.1621 17.8021 16.8421 18.0978 15.1173C16.6229 15.5921 15.2305 14.4767 15.2305 13.0352Z" fill="white"/>
</g>
<defs>
<clipPath id="clip0_3074:27026">
<rect width="25" height="25" fill="white" transform="translate(2 2)"/>
</clipPath>
</defs>
</svg>
