<svg width="29" height="29" viewBox="0 0 29 29" fill="none" xmlns="http://www.w3.org/2000/svg">
<path d="M20.8318 15.7511C20.3774 10.0072 16.2482 5.18625 10.575 4.01604C10.2991 3.95922 10.014 4.05569 9.82947 4.26859C6.03952 8.64147 5.56172 15.0058 8.63906 19.9004C9.80295 21.7515 11.6326 22.8658 13.768 22.9771C13.9589 24.7224 13.9876 26.4553 13.851 28.1592C13.8147 28.6116 14.1717 28.9999 14.6278 28.9999C15.0295 28.9999 15.3702 28.691 15.4028 28.2836C15.6372 25.3593 15.3816 22.1167 14.6179 18.9996L11.9706 18.0852C11.5642 17.9449 11.3486 17.5017 11.489 17.0953C11.6293 16.6889 12.0726 16.4733 12.4789 16.6137L14.115 17.1788C13.3942 14.8344 12.3826 12.4477 11.096 10.0593C10.8921 9.68086 11.0336 9.20875 11.4121 9.00485C11.7906 8.80095 12.2627 8.94248 12.4666 9.32099C13.0105 10.3306 13.5071 11.3408 13.9556 12.3486L14.2629 11.479C14.4061 11.0737 14.8507 10.8611 15.2561 11.0044C15.6615 11.1476 15.874 11.5923 15.7308 11.9976L14.844 14.5076C15.806 17.054 16.4944 19.6719 16.8203 22.4291C19.3997 21.3217 21.0741 18.8137 20.8318 15.7511Z" fill="white"/>
<path d="M23.1727 4.26861C22.9882 4.05571 22.7031 3.95919 22.4272 4.01606C20.7486 4.36231 19.1531 5.04771 17.7422 6.02098C19.5412 7.68471 20.8985 9.79623 21.6774 12.1497C23.3767 17.285 21.9132 20.9168 18.9922 22.9853C21.2319 22.9497 23.1568 21.819 24.3631 19.9004C27.4119 15.0512 26.9975 8.68168 23.1727 4.26861Z" fill="white"/>
</svg>
