<svg width="203" height="34" viewBox="0 0 203 34" fill="none" xmlns="http://www.w3.org/2000/svg">
<path d="M132.25 20.193C131.455 20.9954 130.429 21.2628 129.437 21.2628C127.451 21.2628 125.763 19.9255 125.763 17.4516C125.763 15.1783 127.318 13.5735 129.47 13.5735C130.363 13.5735 131.29 13.9078 132.051 14.6099L134.07 12.4703C132.647 11.0662 131.257 10.5312 129.403 10.5312C125.664 10.5312 122.553 12.8046 122.553 17.4516C122.553 22.0652 125.664 24.372 129.403 24.372C131.323 24.372 132.879 23.8036 134.368 22.2992L132.25 20.193Z" fill="url(#paint0_linear)"/>
<path d="M135.129 5.44922L135.129 23.9704L138.339 23.9704L138.339 17.3175C138.339 15.345 139.663 13.7403 141.549 13.7403C143.237 13.7403 144.495 14.7432 144.495 17.1169L144.495 23.9704L147.705 23.9704L147.705 17.0834C147.705 13.2388 146.083 10.7314 142.41 10.7314C140.954 10.7314 139.531 11.166 138.372 12.7039L138.372 5.44922L135.129 5.44922Z" fill="url(#paint1_linear)"/>
<path d="M159.852 12.7374C159.123 11.4336 157.469 10.6312 155.748 10.6312C151.975 10.5978 149.029 12.9714 149.029 17.4513C149.029 22.0314 151.842 24.4051 155.681 24.3716C157.138 24.3382 159.123 23.6027 159.885 22.0648L160.05 23.9704L163.062 23.9704L163.062 10.9321L159.984 10.9321L159.852 12.7374ZM156.012 13.5063C161.043 13.5063 161.043 21.4296 156.012 21.4296C153.894 21.4296 152.173 19.9586 152.173 17.4513C152.173 14.9439 153.894 13.5063 156.012 13.5063Z" fill="url(#paint2_linear)"/>
<path d="M165.047 10.9322L165.047 23.9705L168.257 23.9705L168.257 17.0836C168.257 14.6765 169.813 13.7739 171.467 13.7739C172.526 13.7739 173.122 14.0748 173.784 14.6097L175.24 11.8014C174.545 11.0994 173.255 10.5645 171.898 10.5645C170.574 10.5645 169.25 10.7985 168.257 12.4032L168.025 10.8988L165.047 10.8988L165.047 10.9322Z" fill="url(#paint3_linear)"/>
<path d="M202.941 18.5883C203.437 13.2058 200.757 10.5312 196.421 10.5312C192.218 10.5312 189.57 13.3729 189.57 17.3513C189.57 21.5303 192.218 24.3051 196.653 24.3051C198.605 24.3051 200.856 23.603 202.213 22.1989L200.161 20.1596C199.433 20.9285 197.877 21.3631 196.719 21.3631C194.468 21.3631 193.078 20.193 192.88 18.5883L202.941 18.5883ZM192.913 15.9472C193.376 14.2422 194.799 13.4064 196.52 13.4064C198.341 13.4064 199.664 14.2422 199.863 15.9472L192.913 15.9472Z" fill="url(#paint4_linear)"/>
<path d="M98.7567 23.8371L98.7567 16.8498C98.7567 15.1448 99.8157 13.607 101.57 13.607C103.324 13.607 104.019 15.078 104.019 16.783L104.019 23.8036L107.229 23.8036L107.229 16.783C107.229 12.8715 105.409 10.5981 101.768 10.5981C100.081 10.5981 98.5912 11.133 97.4329 12.9718C96.7048 11.1665 95.1493 10.5312 93.5938 10.5312C92.3693 10.5312 90.88 10.9993 90.185 12.3366L89.9533 10.7653L87.0078 10.7653L87.0078 23.8371L90.2181 23.8371L90.2181 16.8498C90.2181 15.1448 91.244 13.5735 92.965 13.5735C94.719 13.5735 95.6126 15.1448 95.6126 16.8498L95.6126 23.8371L98.7567 23.8371ZM117.787 10.7987L115.437 16.5155L114.113 20.1261L112.888 16.4487L110.936 10.7987L107.229 10.7987L112.392 23.6365L109.976 29.2864L113.484 29.2864L121.361 10.7987L117.787 10.7987Z" fill="url(#paint5_linear)"/>
<path d="M175.439 25.4746C175.77 28.6506 178.451 30.7234 182.025 30.7234C185.6 30.7234 188.214 28.7175 188.545 25.4746L185.302 25.4746C184.971 26.8787 183.68 27.6477 182.059 27.6477C180.437 27.6477 179.08 26.8119 178.716 25.4746L175.439 25.4746Z" fill="url(#paint6_linear)"/>
<path d="M181.859 13.607C184.01 13.607 185.367 15.5126 185.367 17.4851C185.367 19.4576 184.176 21.3297 181.859 21.3297C179.542 21.3297 178.351 19.491 178.351 17.4851C178.351 15.5126 179.542 13.607 181.859 13.607ZM188.809 17.5854L188.809 11.0662L185.566 11.0662L185.566 11.7014C184.54 11.0662 183.282 10.665 181.826 10.665C177.722 10.665 175.141 13.7408 175.141 17.4517C175.141 17.6857 175.141 17.9531 175.174 18.1872C175.339 21.8312 177.854 24.7398 181.958 24.7398C186.228 24.7398 188.809 21.6641 188.809 17.8194C188.809 17.7526 188.809 17.6523 188.809 17.5854Z" fill="url(#paint7_linear)"/>
<path d="M15.0253 -9.026e-09L1.17084e-08 19.4907L9.53148 19.4907L5.46075 34L20.4861 14.5093L10.9546 14.5093L15.0253 -9.026e-09Z" fill="url(#paint8_linear)"/>
<path d="M78.3376 17.2169L83.5998 11.266L83.5998 11.0654L79.7607 11.0654L75.4252 16.3142L75.4252 16.2808L72.248 20.1254L72.248 24.1038L75.4252 24.1038L75.4252 18.2198L80.4888 24.1038L84.3279 24.1038L84.3279 23.8698L78.3376 17.2169Z" fill="url(#paint9_linear)"/>
<path d="M50.1736 21.4301C47.8569 21.4301 46.6654 19.5914 46.6654 17.5855C46.6654 15.613 47.8569 13.7074 50.1736 13.7074C52.3248 13.7074 53.6817 15.613 53.6817 17.5855C53.6817 19.5914 52.5233 21.4301 50.1736 21.4301ZM50.1736 10.7988C46.0697 10.7988 43.4883 13.8745 43.4883 17.5855C43.4883 21.3298 46.0035 24.3721 50.2067 24.3721C54.4098 24.3721 56.925 21.3298 56.925 17.5855C56.925 13.8745 54.2774 10.7988 50.1736 10.7988Z" fill="url(#paint10_linear)"/>
<path d="M75.4252 14.2416L75.4252 5.61621L72.248 5.61621L72.248 17.9191L75.4252 14.2416Z" fill="url(#paint11_linear)"/>
<path d="M35.9424 20.8613L30.6471 20.8613L30.6471 16.0805L35.9424 16.0805C37.3655 16.0805 39.3843 16.9498 39.3843 18.6214C39.3512 20.3932 37.3655 20.8613 35.9424 20.8613ZM30.6471 8.75902L35.9424 8.75902C38.1267 8.75902 38.8217 10.1966 38.8217 11.0324C38.8217 12.1022 38.1267 13.0048 35.9424 13.0048L30.6471 13.0048L30.6471 8.75902ZM39.8807 14.5427C41.5686 13.7738 42.2636 12.4031 42.2636 10.9655C42.2636 7.22116 39.5829 5.58301 35.9424 5.58301L27.2383 5.58301L27.2383 24.1041L35.9424 24.1041C39.7484 24.1041 42.7931 22.7669 42.7931 18.6548C42.7931 17.4847 41.9988 15.1779 39.8807 14.5427Z" fill="url(#paint12_linear)"/>
<path d="M64.3043 21.4291C61.9876 21.4291 60.7962 19.5904 60.7962 17.5845C60.7962 15.612 61.9876 13.7064 64.3043 13.7064C66.4555 13.7064 67.8124 15.612 67.8124 17.5845C67.8124 19.5904 66.621 21.4291 64.3043 21.4291ZM64.2712 10.7979C60.1674 10.7979 57.5859 13.8736 57.5859 17.5845C57.5859 21.3288 60.1012 24.3711 64.3043 24.3711C68.5074 24.3711 71.0227 21.3288 71.0227 17.5845C71.0227 13.8736 68.375 10.7979 64.2712 10.7979Z" fill="url(#paint13_linear)"/>
<defs>
<linearGradient id="paint0_linear" x1="132.3" y1="8.80494" x2="120.398" y2="23.8608" gradientUnits="userSpaceOnUse">
<stop stop-color="#84C9FB"/>
<stop offset="1" stop-color="#67B3EB"/>
</linearGradient>
<linearGradient id="paint1_linear" x1="145.504" y1="3.13913" x2="129.135" y2="19.6092" gradientUnits="userSpaceOnUse">
<stop stop-color="#84C9FB"/>
<stop offset="1" stop-color="#67B3EB"/>
</linearGradient>
<linearGradient id="paint2_linear" x1="160.606" y1="8.91697" x2="149.434" y2="25.8232" gradientUnits="userSpaceOnUse">
<stop stop-color="#84C9FB"/>
<stop offset="1" stop-color="#67B3EB"/>
</linearGradient>
<linearGradient id="paint3_linear" x1="173.456" y1="8.89235" x2="161.691" y2="22.1476" gradientUnits="userSpaceOnUse">
<stop stop-color="#84C9FB"/>
<stop offset="1" stop-color="#67B3EB"/>
</linearGradient>
<linearGradient id="paint4_linear" x1="200.65" y1="8.81328" x2="189.256" y2="25.2743" gradientUnits="userSpaceOnUse">
<stop stop-color="#84C9FB"/>
<stop offset="1" stop-color="#67B3EB"/>
</linearGradient>
<linearGradient id="paint5_linear" x1="115.349" y1="8.19197" x2="104.594" y2="37.3821" gradientUnits="userSpaceOnUse">
<stop stop-color="#84C9FB"/>
<stop offset="1" stop-color="#67B3EB"/>
</linearGradient>
<linearGradient id="paint6_linear" x1="186.252" y1="24.8199" x2="183.915" y2="33.4664" gradientUnits="userSpaceOnUse">
<stop stop-color="#84C9FB"/>
<stop offset="1" stop-color="#67B3EB"/>
</linearGradient>
<linearGradient id="paint7_linear" x1="186.417" y1="8.90954" x2="174.758" y2="25.6868" gradientUnits="userSpaceOnUse">
<stop stop-color="#84C9FB"/>
<stop offset="1" stop-color="#67B3EB"/>
</linearGradient>
<linearGradient id="paint8_linear" x1="16.901" y1="-4.24072" x2="-12.9571" y2="22.4171" gradientUnits="userSpaceOnUse">
<stop stop-color="#84C9FB"/>
<stop offset="1" stop-color="#67B3EB"/>
</linearGradient>
<linearGradient id="paint9_linear" x1="82.2139" y1="9.43919" x2="71.2455" y2="24.497" gradientUnits="userSpaceOnUse">
<stop stop-color="#84C9FB"/>
<stop offset="1" stop-color="#67B3EB"/>
</linearGradient>
<linearGradient id="paint10_linear" x1="54.5736" y1="9.10587" x2="43.4068" y2="25.4861" gradientUnits="userSpaceOnUse">
<stop stop-color="#84C9FB"/>
<stop offset="1" stop-color="#67B3EB"/>
</linearGradient>
<linearGradient id="paint11_linear" x1="74.8692" y1="4.08171" x2="67.6103" y2="6.85942" gradientUnits="userSpaceOnUse">
<stop stop-color="#84C9FB"/>
<stop offset="1" stop-color="#67B3EB"/>
</linearGradient>
<linearGradient id="paint12_linear" x1="40.071" y1="3.27292" x2="24.0853" y2="23.1665" gradientUnits="userSpaceOnUse">
<stop stop-color="#84C9FB"/>
<stop offset="1" stop-color="#67B3EB"/>
</linearGradient>
<linearGradient id="paint13_linear" x1="68.6712" y1="9.1049" x2="57.5044" y2="25.4852" gradientUnits="userSpaceOnUse">
<stop stop-color="#84C9FB"/>
<stop offset="1" stop-color="#67B3EB"/>
</linearGradient>
</defs>
</svg>
