<svg width="218" height="36" viewBox="0 0 218 36" fill="none" xmlns="http://www.w3.org/2000/svg">
<path d="M142.023 21.3805C141.17 22.23 140.068 22.5132 139.002 22.5132C136.869 22.5132 135.057 21.0973 135.057 18.4778C135.057 16.0707 136.727 14.3716 139.037 14.3716C139.997 14.3716 140.992 14.7256 141.81 15.469L143.978 13.2035C142.449 11.7168 140.957 11.1504 138.966 11.1504C134.95 11.1504 131.609 13.5575 131.609 18.4778C131.609 23.3628 134.95 25.8053 138.966 25.8053C141.028 25.8053 142.698 25.2035 144.297 23.6106L142.023 21.3805Z" fill="white"/>
<path d="M145.113 5.76953L145.113 25.3801L148.561 25.3801L148.561 18.3359C148.561 16.2474 149.982 14.5483 152.008 14.5483C153.821 14.5483 155.171 15.6102 155.171 18.1235L155.171 25.3801L158.619 25.3801L158.619 18.0881C158.619 14.0173 156.877 11.3625 152.932 11.3625C151.368 11.3625 149.84 11.8226 148.596 13.4509L148.596 5.76953L145.113 5.76953Z" fill="white"/>
<path d="M171.661 13.4863C170.879 12.1058 169.102 11.2562 167.254 11.2562C163.202 11.2208 160.039 13.7341 160.039 18.4775C160.039 23.327 163.06 25.8403 167.183 25.8049C168.747 25.7695 170.879 24.9907 171.696 23.3624L171.874 25.3801L175.108 25.3801L175.108 11.5748L171.803 11.5748L171.661 13.4863ZM167.538 14.3005C172.94 14.3005 172.94 22.6899 167.538 22.6899C165.264 22.6899 163.415 21.1323 163.415 18.4775C163.415 15.8226 165.264 14.3005 167.538 14.3005Z" fill="white"/>
<path d="M177.242 11.5749L177.242 25.3802L180.69 25.3802L180.69 18.0882C180.69 15.5395 182.36 14.5838 184.137 14.5838C185.274 14.5838 185.914 14.9024 186.625 15.4687L188.189 12.4953C187.442 11.7519 186.056 11.1855 184.599 11.1855C183.178 11.1855 181.756 11.4333 180.69 13.1324L180.441 11.5395L177.242 11.5395L177.242 11.5749Z" fill="white"/>
<path d="M217.937 19.6814C218.47 13.9822 215.591 11.1504 210.935 11.1504C206.421 11.1504 203.578 14.1592 203.578 18.3716C203.578 22.7964 206.421 25.7345 211.184 25.7345C213.281 25.7345 215.698 24.9911 217.155 23.5044L214.951 21.3451C214.169 22.1592 212.499 22.6194 211.255 22.6194C208.838 22.6194 207.345 21.3805 207.132 19.6814L217.937 19.6814ZM207.168 16.8849C207.665 15.0796 209.194 14.1946 211.042 14.1946C212.996 14.1946 214.418 15.0796 214.631 16.8849L207.168 16.8849Z" fill="white"/>
<path d="M106.055 25.2389L106.055 17.8407C106.055 16.0353 107.192 14.407 109.076 14.407C110.959 14.407 111.706 15.9646 111.706 17.7699L111.706 25.2035L115.153 25.2035L115.153 17.7699C115.153 13.6283 113.198 11.2212 109.289 11.2212C107.476 11.2212 105.877 11.7876 104.633 13.7345C103.851 11.823 102.181 11.1504 100.51 11.1504C99.1951 11.1504 97.5958 11.646 96.8494 13.0619L96.6006 11.3982L93.4375 11.3982L93.4375 25.2389L96.885 25.2389L96.885 17.8407C96.885 16.0353 97.9867 14.3716 99.8349 14.3716C101.719 14.3716 102.678 16.0353 102.678 17.8407L102.678 25.2389L106.055 25.2389ZM126.491 11.4336L123.967 17.4867L122.546 21.3097L121.231 17.4159L119.134 11.4336L115.153 11.4336L120.697 25.0265L118.103 31.0088L121.87 31.0088L130.329 11.4336L126.491 11.4336Z" fill="white"/>
<path d="M188.402 26.9727C188.758 30.3355 191.637 32.5302 195.475 32.5302C199.313 32.5302 202.121 30.4063 202.477 26.9727L198.994 26.9727C198.638 28.4594 197.252 29.2735 195.511 29.2735C193.769 29.2735 192.312 28.3886 191.921 26.9727L188.402 26.9727Z" fill="white"/>
<path d="M195.297 14.4061C197.607 14.4061 199.064 16.4238 199.064 18.5123C199.064 20.6007 197.785 22.5831 195.297 22.5831C192.809 22.5831 191.53 20.6361 191.53 18.5123C191.53 16.4238 192.809 14.4061 195.297 14.4061ZM202.76 18.6184L202.76 11.7158L199.277 11.7158L199.277 12.3884C198.176 11.7158 196.825 11.291 195.261 11.291C190.854 11.291 188.082 14.5477 188.082 18.4769C188.082 18.7246 188.082 19.0078 188.118 19.2556C188.295 23.114 190.996 26.1937 195.403 26.1937C199.988 26.1937 202.76 22.937 202.76 18.8662C202.76 18.7954 202.76 18.6892 202.76 18.6184Z" fill="white"/>
<path d="M16.1356 -9.69295e-09L1.23971e-08 20.6372L10.2358 20.6372L5.86425 36L21.9998 15.3628L11.764 15.3628L16.1356 -9.69295e-09Z" fill="white"/>
<path d="M84.1255 18.2301L89.7765 11.9292L89.7765 11.7168L85.6537 11.7168L80.9979 17.2743L80.9979 17.2389L77.5859 21.3097L77.5859 25.5221L80.9979 25.5221L80.9979 19.292L86.4356 25.5221L90.5584 25.5221L90.5584 25.2743L84.1255 18.2301Z" fill="white"/>
<path d="M53.8785 22.6902C51.3906 22.6902 50.1111 20.7433 50.1111 18.6194C50.1111 16.5309 51.3906 14.5132 53.8785 14.5132C56.1887 14.5132 57.6458 16.5309 57.6458 18.6194C57.6458 20.7433 56.4019 22.6902 53.8785 22.6902ZM53.8785 11.4336C49.4714 11.4336 46.6992 14.6902 46.6992 18.6194C46.6992 22.584 49.4003 25.8053 53.914 25.8053C58.4277 25.8053 61.1288 22.584 61.1288 18.6194C61.1288 14.6902 58.2856 11.4336 53.8785 11.4336Z" fill="white"/>
<path d="M80.9979 15.08L80.9979 5.94727L77.5859 5.94727L77.5859 18.9738L80.9979 15.08Z" fill="white"/>
<path d="M38.5973 22.0891L32.9107 22.0891L32.9107 17.0272L38.5973 17.0272C40.1255 17.0272 42.2935 17.9475 42.2935 19.7174C42.258 21.5935 40.1255 22.0891 38.5973 22.0891ZM32.9107 9.27494L38.5973 9.27494C40.943 9.27494 41.6893 10.7971 41.6893 11.682C41.6893 12.8148 40.943 13.7705 38.5973 13.7705L32.9107 13.7705L32.9107 9.27494ZM42.8266 15.3988C44.6392 14.5847 45.3856 13.1333 45.3856 11.6112C45.3856 7.64662 42.5068 5.91211 38.5973 5.91211L29.25 5.91211L29.25 25.5227L38.5973 25.5227C42.6845 25.5227 45.9542 24.1068 45.9542 19.7528C45.9542 18.5139 45.1012 16.0714 42.8266 15.3988Z" fill="white"/>
<path d="M69.0546 22.6902C66.5668 22.6902 65.2873 20.7433 65.2873 18.6194C65.2873 16.5309 66.5668 14.5132 69.0546 14.5132C71.3648 14.5132 72.822 16.5309 72.822 18.6194C72.822 20.7433 71.5425 22.6902 69.0546 22.6902ZM69.0191 11.4336C64.612 11.4336 61.8398 14.6902 61.8398 18.6194C61.8398 22.584 64.541 25.8053 69.0546 25.8053C73.5683 25.8053 76.2695 22.584 76.2695 18.6194C76.2695 14.6902 73.4262 11.4336 69.0191 11.4336Z" fill="white"/>
</svg>
