<svg width="24" height="24" viewBox="0 0 24 24" fill="none" xmlns="http://www.w3.org/2000/svg">
<g clip-path="url(#clip0_3074:26952)">
<path d="M12.3543 16.2196V16.1261C11.8764 16.1209 11.4193 16.095 10.9778 16.0586C10.7388 16.6767 10.4012 17.2533 9.98047 17.7675C10.7752 17.8974 11.5803 17.9701 12.3854 17.9805L12.3543 16.2196Z" fill="white"/>
<path d="M10.2507 12.7818C9.86636 10.943 8.51065 9.44707 6.70823 8.88089C6.20958 8.73026 5.69535 8.65234 5.17592 8.65234C3.88773 8.65754 2.6411 9.13541 1.69055 9.99766C-0.423525 11.9196 -0.574159 15.1971 1.34773 17.3112C3.26961 19.4253 6.54721 19.5759 8.66129 17.654C9.7417 16.6723 10.3598 15.2854 10.3546 13.8259C10.3546 13.4778 10.3183 13.1246 10.2507 12.7818ZM5.17592 13.1298C6.05375 13.1298 6.8277 13.7116 7.06664 14.5582C7.35752 15.6023 6.75498 16.6827 5.70574 16.9788V17.4359C5.70574 17.7216 5.47199 17.9553 5.18631 17.9553C4.90062 17.9553 4.66688 17.7216 4.66688 17.4359V16.984C3.80982 16.7502 3.21767 15.9763 3.21248 15.0881C3.21248 14.8024 3.44622 14.5686 3.73191 14.5686C4.01759 14.5686 4.25133 14.8024 4.25133 15.0881C4.25133 15.5971 4.66688 16.0075 5.17592 16.0075C5.68496 16.0075 6.09531 15.5919 6.09531 15.0829C6.09531 14.5738 5.67976 14.1635 5.17072 14.1635C4.2825 14.1635 3.50855 13.5661 3.28 12.7091C3.00471 11.6702 3.62802 10.5898 4.67207 10.3093V10.086C4.67207 9.80028 4.90581 9.56654 5.1915 9.56654C5.47719 9.56654 5.71093 9.80028 5.71093 10.086V10.3197C6.5576 10.5586 7.13936 11.3326 7.13936 12.2104C7.13936 12.4961 6.90562 12.7299 6.61993 12.7299C6.33424 12.7299 6.1005 12.4961 6.1005 12.2104C6.1005 11.7014 5.68496 11.2858 5.17592 11.2858C4.66688 11.2858 4.25653 11.6962 4.25133 12.2104C4.25133 12.7195 4.66688 13.1298 5.17592 13.1298Z" fill="white"/>
<path d="M12.3383 15.0822L12.3071 13.2434C11.9851 13.2382 11.6682 13.2278 11.3669 13.207C11.3825 13.4148 11.3929 13.6174 11.3929 13.82C11.3929 14.2251 11.3514 14.6355 11.2734 15.0354C11.6163 15.0666 11.9747 15.0822 12.3383 15.0822Z" fill="white"/>
<path d="M18.0245 6.48633C17.6661 6.67332 17.2869 6.82396 16.8974 6.93823C15.7287 7.29144 14.1963 7.48363 12.5965 7.48363C11.0642 7.48363 9.6046 7.30703 8.47744 6.97979C8.08786 6.8759 7.71387 6.73046 7.35547 6.54866L7.39183 8.01345C7.97878 8.23161 8.52418 8.54327 9.01764 8.93284C9.03322 8.93803 9.04361 8.93803 9.0592 8.94323C10.0565 9.19775 11.3135 9.3328 12.5965 9.3328C14.0821 9.3328 15.5417 9.1458 16.5961 8.82895C17.7233 8.48613 17.9726 8.12772 17.9726 8.0602C17.9726 7.98748 17.9674 7.91995 18.0245 7.84723V6.48633Z" fill="white"/>
<path d="M16.5921 4.42377C15.5376 4.10172 14.078 3.91992 12.5925 3.91992C11.0965 3.91992 9.69406 4.10172 8.64481 4.42377C7.54882 4.7562 7.30988 5.08344 7.30469 5.18732C7.30469 5.18732 7.30988 5.18732 7.30988 5.19771C7.33585 5.31199 7.64751 5.6652 8.76428 5.98724C9.79795 6.28851 11.1588 6.45473 12.5925 6.45473C14.078 6.45473 15.5324 6.27293 16.5869 5.95608C17.714 5.61845 17.9686 5.26004 17.9686 5.18732C17.9686 5.1198 17.7192 4.76659 16.5921 4.42377Z" fill="white"/>
<path d="M23.9896 18.7966V17.2383C23.6416 17.4149 23.278 17.5655 22.8988 17.6798C21.7353 18.033 20.2134 18.2252 18.6084 18.2252C17.1851 18.2252 15.7982 18.0642 14.7074 17.7785C14.2607 17.6642 13.8296 17.5084 13.4141 17.3058L13.44 18.8122C13.44 18.8173 13.44 18.8173 13.44 18.8225C13.44 18.9005 13.6686 19.2485 14.7646 19.5861C15.8034 19.903 17.2059 20.0796 18.707 20.0796C20.203 20.0796 21.6106 19.8978 22.6599 19.5705C23.7559 19.2277 23.9948 18.8693 23.9948 18.7966H23.9896Z" fill="white"/>
<path d="M18.0154 9.38477C17.657 9.56657 17.283 9.7172 16.8935 9.83148C15.7247 10.1847 14.1924 10.3769 12.5874 10.3769C11.7979 10.3769 11.0135 10.3249 10.2344 10.2262C10.6551 10.808 10.9668 11.4625 11.1642 12.1585C11.6109 12.1897 12.0939 12.2105 12.5926 12.2105C12.6082 12.2105 12.6289 12.2105 12.6445 12.2105C13.4964 11.2755 15.7871 10.808 18.0154 10.7457V9.38477Z" fill="white"/>
<path d="M22.8623 14.8067C21.704 15.1496 20.1977 15.3366 18.6186 15.3366C17.0863 15.3366 15.6267 15.16 14.4995 14.8327C14.11 14.7236 13.7308 14.5782 13.3672 14.3964L13.388 15.5911L13.3932 16.0274C13.7983 16.5313 15.7358 17.1805 18.6134 17.1805C20.1146 17.1805 21.5326 17.0039 22.5974 16.6819C23.7194 16.3391 23.9635 15.9859 23.9635 15.9131C23.9635 15.856 23.9947 15.7937 23.9947 15.7417H23.9999V14.3652C23.6363 14.547 23.2571 14.7029 22.8623 14.8067Z" fill="white"/>
<path d="M22.6194 12.2884C21.5598 11.9663 20.1054 11.7949 18.6198 11.7949H18.5315C17.1498 11.7949 15.8357 11.9508 14.828 12.2364C13.7528 12.5377 13.384 12.8805 13.3372 13.0208C13.332 13.0312 13.332 13.0364 13.332 13.0416C13.332 13.0416 13.332 13.0416 13.3424 13.0623C13.3736 13.1714 13.68 13.5246 14.7968 13.8519C15.8305 14.1479 17.1914 14.3142 18.625 14.3142C20.1054 14.3142 21.5078 14.1427 22.5727 13.8259C23.7258 13.4831 23.9855 13.1247 23.9907 13.0467V13.0416C23.9855 12.9636 23.7258 12.6208 22.6194 12.2884Z" fill="white"/>
</g>
<defs>
<clipPath id="clip0_3074:26952">
<rect width="24" height="24" fill="white"/>
</clipPath>
</defs>
</svg>
