<svg width="28" height="28" viewBox="0 0 28 28" fill="none" xmlns="http://www.w3.org/2000/svg">
<path d="M17.0864 7.59148C18.2424 8.31624 19.0529 9.54268 19.2005 10.9663C19.6719 11.1866 20.1951 11.3132 20.7498 11.3132C22.775 11.3132 24.4164 9.67185 24.4164 7.64701C24.4164 5.62186 22.775 3.98047 20.7498 3.98047C18.744 3.98109 17.117 5.59316 17.0864 7.59148ZM14.6844 15.0987C16.7095 15.0987 18.3509 13.4569 18.3509 11.4321C18.3509 9.40728 16.7092 7.76588 14.6844 7.76588C12.6596 7.76588 11.0172 9.40759 11.0172 11.4324C11.0172 13.4573 12.6596 15.0987 14.6844 15.0987ZM16.2397 15.3486H13.1285C10.5399 15.3486 8.43392 17.4548 8.43392 20.0434V23.8482L8.44359 23.9078L8.70567 23.9898C11.176 24.7617 13.3222 25.0191 15.0887 25.0191C18.5391 25.0191 20.5389 24.0354 20.6622 23.9727L20.9071 23.8488H20.9333V20.0434C20.9342 17.4548 18.8283 15.3486 16.2397 15.3486ZM22.3058 11.5635H19.2186C19.1852 12.7986 18.6579 13.9109 17.824 14.7108C20.1249 15.395 21.8084 17.5288 21.8084 20.049V21.2215C24.8566 21.1098 26.6131 20.2459 26.7289 20.1879L26.9738 20.0637H27V16.2577C27 13.6694 24.894 11.5635 22.3058 11.5635ZM8.25078 11.3139C8.96805 11.3139 9.63541 11.1045 10.2007 10.7479C10.3804 9.57575 11.0088 8.55148 11.9064 7.85386C11.9101 7.78522 11.9167 7.71721 11.9167 7.64795C11.9167 5.6228 10.275 3.9814 8.25078 3.9814C6.22532 3.9814 4.58424 5.6228 4.58424 7.64795C4.58424 9.67216 6.22532 11.3139 8.25078 11.3139ZM11.5436 14.7108C10.7137 13.915 10.1883 12.8086 10.1499 11.5809C10.0354 11.5725 9.92213 11.5635 9.80544 11.5635H6.69456C4.10595 11.5635 2 13.6694 2 16.2577V20.0631L2.00967 20.1217L2.27175 20.2044C4.25353 20.8231 6.02221 21.1083 7.55847 21.1981V20.049C7.55909 17.5288 9.24198 15.3957 11.5436 14.7108Z" fill="white"/>
</svg>
